<svg xmlns="http://www.w3.org/2000/svg" width="66" height="66" viewBox="0 0 66 66"><defs><style>.a{fill:#4242423a;}.b{fill:#464545;}</style></defs><g transform="translate(-90 -1978)"><circle class="a" cx="33" cy="33" r="33" transform="translate(90 1978)"/><path class="b" d="M38.835,86.247c0-.007,0-.015,0-.022a.89.89,0,0,0-.894-.874h-.235L34.08,78.342a.891.891,0,0,0-.795-.48H27.1l.236-1.872a2.543,2.543,0,0,0-2.564-2.816H5.558a.949.949,0,0,0-.939.856L4.426,75.57H15.371a1.247,1.247,0,0,1,1.253,1.287A1.328,1.328,0,0,1,15.3,78.143H11.653l0,.005H.934a.939.939,0,0,0-.934.91.882.882,0,0,0,.886.91H15.079a1.334,1.334,0,0,1,1.133,1.361,1.423,1.423,0,0,1-1.4,1.378H5.024a.949.949,0,0,0-.943.919.891.891,0,0,0,.9.919h9.67A1.334,1.334,0,0,1,15.8,85.91a1.423,1.423,0,0,1-1.415,1.379H2.357a.949.949,0,0,0-.943.919.891.891,0,0,0,.9.919h.8L2.8,92.421a2.543,2.543,0,0,0,2.564,2.816h.694a4.01,4.01,0,0,0,3.968,3.32,4.281,4.281,0,0,0,4.142-3.32h8.66a2.934,2.934,0,0,0,1.883-.706,2.559,2.559,0,0,0,1.794.706h.142a4.01,4.01,0,0,0,3.968,3.32,4.281,4.281,0,0,0,4.142-3.32h.572a3.019,3.019,0,0,0,2.944-2.7l.56-6.2c0-.008,0-.017,0-.025s0-.025,0-.038S38.835,86.255,38.835,86.247ZM10.073,96.718a2.229,2.229,0,0,1-2.238-2.3,2.375,2.375,0,0,1,2.358-2.3,2.229,2.229,0,0,1,2.238,2.3A2.375,2.375,0,0,1,10.073,96.718Zm20.589,0a2.229,2.229,0,0,1-2.238-2.3,2.375,2.375,0,0,1,2.358-2.3,2.229,2.229,0,0,1,2.238,2.3A2.375,2.375,0,0,1,30.662,96.718Zm5.778-4.3a1.107,1.107,0,0,1-1.064.978h-.618a4.01,4.01,0,0,0-3.927-3.114,4.282,4.282,0,0,0-4.09,3.114h-.189a.781.781,0,0,1-.587-.247.791.791,0,0,1-.194-.614L26.93,79.7h2.662l-.422,4.674a2.543,2.543,0,0,0,2.564,2.816h5.178Z" transform="translate(104 1928.917)"/></g></svg>