<svg xmlns="http://www.w3.org/2000/svg" width="60.809" height="52.033" viewBox="0 0 60.809 52.033"><defs><style>.a{fill:#fff;}b{fill:#464545}</style></defs><g transform="translate(-269.599 -194.968)"><g transform="translate(288.258 194.968)"><path class="a" d="M381.773,253.935a10.691,10.691,0,0,1-14.484-3.557c-1.447-2.233-3.388-4.521-1.442-8.14,1.358,2.322,2.4,4.207,3.545,6.036,2.614,4.191,7.107,5.4,11.034,3.012,3.747-2.272,4.824-6.7,2.53-10.888-1.4-2.552-2.85-5.088-4.359-7.584l.028-.017-3.73-6.468c2.221-.426,3.831.909,5.088,3.1,1.947,3.388,4.05,6.7,5.845,10.159A10.734,10.734,0,0,1,381.773,253.935Z" transform="translate(-364.792 -220.057)"/><path class="a" d="M404.052,248.461c1.324,2.221,1.644,4.319.1,6.058l-3.775-6.535c-.634-1.133-1.3-2.255-1.952-3.377l-.146-.252-.853-1.481h-.006c-.376-.656-.752-1.312-1.111-1.98-1.3-2.379-1.335-4.432-.146-5.829l3.764,6.524.084-.051C401.3,243.878,402.689,246.161,404.052,248.461Z" transform="translate(-389.073 -227.126)"/><path class="a" d="M385.048,207.972c-1.436-2.4-2.547-4.426-3.82-6.345a7.832,7.832,0,0,0-10.6-2.659,7.718,7.718,0,0,0-2.894,10.507c.51.976,1.038,1.941,1.571,2.906.185.337.376.668.567,1l.7,1.217,5.458,9.458c-1.868.264-3.8-.92-5.178-3.265-1.924-3.259-3.865-6.513-5.655-9.845a10.728,10.728,0,0,1,18.518-10.832C385.082,202.3,387.068,204.477,385.048,207.972Z" transform="translate(-363.843 -194.968)"/></g><g transform="translate(269.599 237.628)"><path class="a" d="M274.644,416.969c0-.63-.746-.772-1.647-.824-1.956-.142-3.243-.811-3.269-2.767-.077-3.887,6.924-3.887,6.873,0h-2.188c0-1.2-2.42-1.094-2.5-.026-.051.682.618.824,1.429.914,1.789.193,3.539.463,3.539,2.716,0,3.784-7.336,3.848-7.285-.116h2.227C271.826,418.012,274.644,418.025,274.644,416.969Z" transform="translate(-269.599 -410.457)"/><path class="a" d="M315.007,420.22h-2.278v-3.784l-3.024-4.878v-.347h2.484l1.634,3h.09l1.635-3h2.5v.347l-3.037,4.878Z" transform="translate(-301.764 -411.056)"/><path class="a" d="M360.51,415.637v4.427h-2.381v-9.048h.837l4.556,4.453v-4.414h2.355v9.022h-.824Z" transform="translate(-340.601 -410.901)"/><path class="a" d="M414.453,413.27H411.12v1.274h3.063v2.046H411.12v1.583h3.449v2.046h-5.74v-9.009h5.624Z" transform="translate(-381.262 -411.056)"/><path class="a" d="M445.033,415.1c0-6.229,9.241-6.229,9.241,0S445.033,421.345,445.033,415.1Zm6.886,0a2.265,2.265,0,1,0-4.518,0A2.265,2.265,0,1,0,451.919,415.1Z" transform="translate(-410.298 -410.431)"/><path class="a" d="M504.964,417.183v-5.972h2.2v6.01c0,1.982-1.712,3.128-3.565,3.128s-3.578-1.145-3.578-3.128v-6.01h2.2v5.972c0,.734.708,1.094,1.377,1.094S504.964,417.916,504.964,417.183Z" transform="translate(-454.4 -411.056)"/><path class="a" d="M542.921,413.27v-2.059h6.693v2.059h-2.2v6.95h-2.278v-6.95Z" transform="translate(-488.805 -411.056)"/></g></g></svg>