<svg xmlns="http://www.w3.org/2000/svg" width="66" height="66" viewBox="0 0 66 66"><defs><style>.a{fill:#e5ebfa;}.b{fill:#EE6611;}</style></defs><g transform="translate(-379 -1694)"><circle class="a" cx="33" cy="33" r="33" transform="translate(379 1694)"/><g transform="translate(393.45 1711)"><g transform="translate(2.55 0)"><g transform="translate(0 0)"><path class="b" d="M55.255,9.228,80.692,2.691,80.479,1.7A2.3,2.3,0,0,0,77.708.062l-21.031,5.4a2.3,2.3,0,0,0-1.634,2.771Z" transform="translate(-52.058 0)"/><path class="b" d="M237.488,138.216a2.3,2.3,0,0,0,1.634-2.771l-2.061-8.1L219.3,131.892h12.008a4.427,4.427,0,0,1,4.405,4.405v2.416Z" transform="translate(-207.22 -120.248)"/><path class="b" d="M28.839,249.469a2.245,2.245,0,0,0-2.274-2.274H4.824a2.245,2.245,0,0,0-2.274,2.274v13.926a2.245,2.245,0,0,0,2.274,2.274H26.566a2.245,2.245,0,0,0,2.274-2.274ZM5.037,251.1A1.093,1.093,0,0,1,6.1,250.037H18.181a1.066,1.066,0,1,1,0,2.132H6.1A1.093,1.093,0,0,1,5.037,251.1ZM18.75,263.608a3.639,3.639,0,0,1-3.624-3.624,3.579,3.579,0,0,1,3.624-3.553,3.639,3.639,0,0,1,3.624,3.624A3.579,3.579,0,0,1,18.75,263.608Zm7.816-3.553a3.639,3.639,0,0,1-3.624,3.624,2.419,2.419,0,0,1-.711-.071,4.875,4.875,0,0,0,1.421-3.553,5.178,5.178,0,0,0-1.421-3.553,2.192,2.192,0,0,1,.711-.071A3.594,3.594,0,0,1,26.566,260.056Z" transform="translate(-2.55 -233.42)"/></g></g></g></g></svg>