<svg xmlns="http://www.w3.org/2000/svg" xmlns:xlink="http://www.w3.org/1999/xlink" width="958.067" height="66.394" viewBox="0 0 958.067 66.394"><defs><style>.a{fill:none;}.b{clip-path:url(#a);}.c{fill:#5a6d9d;}</style><clipPath id="a"><rect class="a" width="958.067" height="66.394"/></clipPath></defs><g class="b"><g transform="translate(-420.835 -3178.852)"><g transform="translate(420.835 3185.908)"><g transform="translate(0)"><g transform="translate(54.78 11.995)"><path class="c" d="M-2451.521,2421.1s-.144,1.119,2.668,2.718,5.926,3.223,8.972,5.191c1.435.887,3.488,2.377,8.216,1.49s11.335-1.423,26.119-14.231c1.092-.957,2.274-2.008,2-2.381s-.691-.011-1.6.745-12.808,9.091-19.07,11.465c-1.693.654-2.873.842-3.068-.216a3.076,3.076,0,0,1,1.859-2.925c1.186-.589,9.115-4.343,15.057-17.073.871-2.07,1.56-6.287.792-6.631,0,0-.292-.209-.526.8a21.657,21.657,0,0,1-1.991,5.995c-1.205,2.013-7.032,12.184-14.018,13.833-1.068.076-2.283,0-2.991-2.2s-1.454-4.267-2.062-6.273a17.694,17.694,0,0,1,.6-9.252,22.3,22.3,0,0,0,1.357-5.756c.257-1.291.511-2.075.358-2.16s-.208.029-.325.345-.982,2.676-1.635,4.005-3.087,5.431-3.182,10.062,3.005,8.947,3.212,12.312-.732,6.123-3.427,6.108a7.8,7.8,0,0,1-5.215-1.685c-.583-.64-.277-1.225.314-1.346s2.673-.664,2.673-.664.678-.107.629-.618a5.553,5.553,0,0,0-.16-.9s.039-.412-.907-.108a14.133,14.133,0,0,1-2.387.53,16.977,16.977,0,0,1-2.559.332,12.189,12.189,0,0,1-4.063-1.454c-1.563-.882-3.527-1.992-4.055-2.8s-1.5-1.321-1.591-.575S-2451.521,2421.1-2451.521,2421.1Z" transform="translate(2451.564 -2394.216)"/></g><g transform="translate(0 11.995)"><path class="c" d="M-2478.052,2421.1s.144,1.119-2.669,2.718-5.925,3.223-8.971,5.191c-1.434.887-3.487,2.377-8.216,1.49s-11.335-1.423-26.118-14.231c-1.093-.957-2.276-2.008-2-2.381s.689-.011,1.6.745,12.807,9.091,19.07,11.465c1.692.654,2.874.842,3.067-.216a3.077,3.077,0,0,0-1.858-2.925c-1.187-.589-9.116-4.343-15.058-17.073-.871-2.07-1.56-6.287-.792-6.631,0,0,.293-.209.528.8a21.662,21.662,0,0,0,1.989,5.995c1.207,2.013,7.034,12.184,14.019,13.833,1.069.076,2.284,0,2.992-2.2s1.453-4.267,2.063-6.273a17.7,17.7,0,0,0-.6-9.252,22.272,22.272,0,0,1-1.355-5.756c-.257-1.291-.514-2.075-.36-2.16s.208.029.327.345.981,2.676,1.633,4.005,3.088,5.431,3.183,10.062-3,8.947-3.212,12.312.732,6.123,3.427,6.108a7.8,7.8,0,0,0,5.214-1.685c.584-.64.277-1.225-.313-1.346s-2.674-.664-2.674-.664-.679-.107-.631-.618a5.582,5.582,0,0,1,.16-.9s-.039-.412.908-.108a14.149,14.149,0,0,0,2.387.53,16.985,16.985,0,0,0,2.558.332,12.189,12.189,0,0,0,4.064-1.454c1.563-.882,3.526-1.992,4.055-2.8s1.495-1.321,1.591-.575S-2478.052,2421.1-2478.052,2421.1Z" transform="translate(2526.068 -2394.216)"/></g><g transform="translate(34.567 13.049)"><path class="c" d="M-2478.3,2407.034a5.339,5.339,0,0,1-.758-3.1v-4.083a5.27,5.27,0,0,1,.78-3.143,3.127,3.127,0,0,1,2.687-1.059,3.273,3.273,0,0,1,2.581.894,3.928,3.928,0,0,1,.78,2.649v.629h-2.116v-.689a5.317,5.317,0,0,0-.082-1.051,1.006,1.006,0,0,0-.346-.6,1.244,1.244,0,0,0-.787-.21,1.123,1.123,0,0,0-.825.271,1.3,1.3,0,0,0-.353.691,5.829,5.829,0,0,0-.083,1.094v5.089a3.338,3.338,0,0,0,.278,1.546,1.078,1.078,0,0,0,1.043.509,1.082,1.082,0,0,0,1.043-.54,3.51,3.51,0,0,0,.293-1.621v-1.14h-1.306v-1.4h3.3v6.168h-1.442l-.149-1.185a2.06,2.06,0,0,1-2.056,1.351A2.828,2.828,0,0,1-2478.3,2407.034Z" transform="translate(2479.055 -2395.65)"/><path class="c" d="M-2463.743,2395.834h2.371l2.432,12.157H-2461l-.481-2.806h-2.116l-.495,2.806h-2.087Zm2.025,7.94-.825-5.1-.825,5.1Z" transform="translate(2475.645 -2395.699)"/><path class="c" d="M-2452.29,2397.471h-2.026v-1.637h6.228v1.637h-2v10.52h-2.207Z" transform="translate(2472.506 -2395.699)"/><path class="c" d="M-2441.992,2407.177a4.377,4.377,0,0,1-.893-2.776l1.906-.375a4.2,4.2,0,0,0,.368,1.764,1.071,1.071,0,0,0,1.012.607.918.918,0,0,0,.758-.307,1.29,1.29,0,0,0,.248-.833,2.179,2.179,0,0,0-.323-1.217,5.85,5.85,0,0,0-1.013-1.11l-1.531-1.336a4.757,4.757,0,0,1-1.058-1.3,3.489,3.489,0,0,1-.353-1.645,2.881,2.881,0,0,1,.841-2.221,3.288,3.288,0,0,1,2.327-.781,2.627,2.627,0,0,1,2.236.894,4.438,4.438,0,0,1,.78,2.409l-1.906.329a4.487,4.487,0,0,0-.262-1.486.834.834,0,0,0-.848-.51,1.037,1.037,0,0,0-.8.315,1.162,1.162,0,0,0-.293.826,1.822,1.822,0,0,0,.24.975,4.2,4.2,0,0,0,.75.856l1.516,1.335a6.662,6.662,0,0,1,1.336,1.591,3.782,3.782,0,0,1,.48,1.936,3.075,3.075,0,0,1-.383,1.546,2.724,2.724,0,0,1-1.072,1.058,3.227,3.227,0,0,1-1.593.383A3.109,3.109,0,0,1-2441.992,2407.177Z" transform="translate(2469.479 -2395.65)"/></g><g transform="translate(46.535 29.538)"><path class="c" d="M-2462.778,2418.1h.965v2.406h-.46v-2h-.5Z" transform="translate(2462.778 -2418.083)"/><path class="c" d="M-2459.845,2420.1a.976.976,0,0,0,.275.04.569.569,0,0,0,.484-.214.932.932,0,0,0,.155-.59.616.616,0,0,1-.254.237.818.818,0,0,1-.379.083.749.749,0,0,1-.559-.209.77.77,0,0,1-.206-.564.854.854,0,0,1,.1-.429.722.722,0,0,1,.3-.282.973.973,0,0,1,.451-.1.962.962,0,0,1,.527.141.9.9,0,0,1,.34.4,1.534,1.534,0,0,1,.119.629,1.638,1.638,0,0,1-.129.67,1.011,1.011,0,0,1-.366.445.979.979,0,0,1-.553.156,1.477,1.477,0,0,1-.38-.052,1.438,1.438,0,0,1-.348-.137l.179-.34A.88.88,0,0,0-2459.845,2420.1Zm.062-1.527a.4.4,0,0,0-.124.313.4.4,0,0,0,.116.3.451.451,0,0,0,.32.11.477.477,0,0,0,.347-.122.4.4,0,0,0,.124-.3.4.4,0,0,0-.116-.288.45.45,0,0,0-.341-.124A.459.459,0,0,0-2459.784,2418.577Z" transform="translate(2462.13 -2418.076)"/><path class="c" d="M-2455.386,2418.246a.556.556,0,0,1,.218.462.525.525,0,0,1-.089.3.6.6,0,0,1-.247.209.738.738,0,0,1,.335.24.61.61,0,0,1,.121.371.615.615,0,0,1-.113.368.709.709,0,0,1-.325.242,1.332,1.332,0,0,1-.493.084,1.335,1.335,0,0,1-.493-.084.731.731,0,0,1-.324-.238.6.6,0,0,1-.113-.364.594.594,0,0,1,.127-.377.752.752,0,0,1,.351-.242.667.667,0,0,1-.263-.22.532.532,0,0,1-.095-.306.532.532,0,0,1,.219-.448.945.945,0,0,1,.59-.167A.944.944,0,0,1-2455.386,2418.246Zm-.961,1.266a.318.318,0,0,0-.13.271.333.333,0,0,0,.13.279.6.6,0,0,0,.368.1.6.6,0,0,0,.366-.1.324.324,0,0,0,.132-.277.32.32,0,0,0-.132-.273.609.609,0,0,0-.369-.1A.6.6,0,0,0-2456.347,2419.512Zm.058-1.021a.285.285,0,0,0-.112.241.283.283,0,0,0,.112.24.493.493,0,0,0,.31.086.491.491,0,0,0,.31-.086.286.286,0,0,0,.109-.24.288.288,0,0,0-.109-.241.493.493,0,0,0-.31-.086A.5.5,0,0,0-2456.289,2418.491Z" transform="translate(2461.225 -2418.076)"/><path class="c" d="M-2453.653,2418.1h1.856v.344l-.991,2.062h-.487l.959-2h-.924l0,.341h-.409Z" transform="translate(2460.362 -2418.083)"/></g><g transform="translate(39.492 48.784)"><path class="c" d="M-2469.986,2444.54a.729.729,0,0,1,.314.623.764.764,0,0,1-.158.484.763.763,0,0,1-.436.27.879.879,0,0,1,.533.292.856.856,0,0,1,.193.569.81.81,0,0,1-.338.688,1.522,1.522,0,0,1-.922.25h-1.556v-3.4h1.512A1.431,1.431,0,0,1-2469.986,2444.54Zm-.5,1.051a.372.372,0,0,0,.143-.312.355.355,0,0,0-.143-.3.64.64,0,0,0-.4-.1h-.826v.827h.826A.633.633,0,0,0-2470.482,2445.59Zm.089,1.445a.392.392,0,0,0,.176-.341.378.378,0,0,0-.176-.329.835.835,0,0,0-.486-.113h-.826v.9h.826A.816.816,0,0,0-2470.393,2447.035Z" transform="translate(2472.357 -2444.267)"/><path class="c" d="M-2464.639,2447.715l-.3-.719h-1.663l-.3.719h-.677l1.493-3.4h.677l1.473,3.4Zm-1.731-1.279h1.2l-.593-1.429Z" transform="translate(2471.093 -2444.267)"/><path class="c" d="M-2459.272,2447.715l-.589-1.006a1.136,1.136,0,0,1-.121.005h-.769v1h-.651v-3.4h1.42a1.529,1.529,0,0,1,1.021.307,1.073,1.073,0,0,1,.36.865,1.277,1.277,0,0,1-.173.682,1.045,1.045,0,0,1-.5.422l.749,1.128Zm-1.479-1.575h.769a.865.865,0,0,0,.564-.161.579.579,0,0,0,.194-.477.56.56,0,0,0-.194-.467.882.882,0,0,0-.564-.155h-.769Z" transform="translate(2469.457 -2444.267)"/><path class="c" d="M-2453.829,2447.715l-.588-1.006a1.14,1.14,0,0,1-.121.005h-.768v1h-.652v-3.4h1.42a1.532,1.532,0,0,1,1.022.307,1.079,1.079,0,0,1,.36.865,1.283,1.283,0,0,1-.173.682,1.053,1.053,0,0,1-.5.422l.748,1.128Zm-1.478-1.575h.768a.87.87,0,0,0,.565-.161.581.581,0,0,0,.194-.477.563.563,0,0,0-.194-.467.887.887,0,0,0-.565-.155h-.768Z" transform="translate(2468.016 -2444.267)"/><path class="c" d="M-2448.143,2444.48a1.7,1.7,0,0,1,.654.627,1.693,1.693,0,0,1,.239.885,1.706,1.706,0,0,1-.239.887,1.733,1.733,0,0,1-.654.635,1.846,1.846,0,0,1-.921.234,1.841,1.841,0,0,1-.921-.234,1.737,1.737,0,0,1-.654-.635,1.7,1.7,0,0,1-.238-.887,1.686,1.686,0,0,1,.238-.885,1.7,1.7,0,0,1,.654-.627,1.869,1.869,0,0,1,.921-.229A1.874,1.874,0,0,1-2448.143,2444.48Zm-1.49.508a1.147,1.147,0,0,0-.423.417,1.14,1.14,0,0,0-.155.587,1.136,1.136,0,0,0,.157.588,1.182,1.182,0,0,0,.423.424,1.122,1.122,0,0,0,.576.155,1.1,1.1,0,0,0,.57-.155,1.158,1.158,0,0,0,.416-.424,1.164,1.164,0,0,0,.153-.588,1.153,1.153,0,0,0-.153-.587,1.138,1.138,0,0,0-.416-.417,1.106,1.106,0,0,0-.57-.154A1.138,1.138,0,0,0-2449.633,2444.989Z" transform="translate(2466.671 -2444.251)"/><path class="c" d="M-2442.128,2444.31h.633v3.4h-.618l-1.751-2.343v2.343h-.637v-3.4h.617l1.756,2.35Z" transform="translate(2464.983 -2444.267)"/></g><g transform="translate(28.843)"><path class="c" d="M-2486.84,2387.894l1.777-1.318.315.434-1.28.949.516.695,1.166-.865.319.431-1.166.864.756,1.019-.492.365Z" transform="translate(2486.84 -2380.198)"/><path class="c" d="M-2480.761,2384.225a1.6,1.6,0,0,1,.83.2,1.608,1.608,0,0,1,.614.607,1.6,1.6,0,0,1,.227.836,1.63,1.63,0,0,1-.231.826,1.732,1.732,0,0,1-.64.626,1.737,1.737,0,0,1-.86.248,1.631,1.631,0,0,1-.835-.207,1.609,1.609,0,0,1-.615-.609,1.593,1.593,0,0,1-.226-.833,1.616,1.616,0,0,1,.235-.821,1.788,1.788,0,0,1,.642-.623A1.76,1.76,0,0,1-2480.761,2384.225Zm-.972,1.12a1.085,1.085,0,0,0-.146.541,1.063,1.063,0,0,0,.152.55,1.064,1.064,0,0,0,.407.4,1.109,1.109,0,0,0,.545.144,1.061,1.061,0,0,0,.543-.147,1.025,1.025,0,0,0,.39-.4,1.081,1.081,0,0,0,.137-.542,1.1,1.1,0,0,0-.154-.551,1.082,1.082,0,0,0-.4-.4,1.063,1.063,0,0,0-.537-.143,1.051,1.051,0,0,0-.535.145A1.077,1.077,0,0,0-2481.733,2385.345Z" transform="translate(2485.69 -2379.576)"/><path class="c" d="M-2475.389,2381.645a1.6,1.6,0,0,1,.8.3,1.593,1.593,0,0,1,.534.678,1.59,1.59,0,0,1,.122.857,1.639,1.639,0,0,1-.332.792,1.742,1.742,0,0,1-.711.542,1.742,1.742,0,0,1-.885.14,1.631,1.631,0,0,1-.8-.309,1.6,1.6,0,0,1-.534-.679,1.589,1.589,0,0,1-.122-.855,1.615,1.615,0,0,1,.335-.786,1.772,1.772,0,0,1,.713-.538A1.778,1.778,0,0,1-2475.389,2381.645Zm-1.1.992a1.078,1.078,0,0,0-.211.519,1.067,1.067,0,0,0,.082.566,1.059,1.059,0,0,0,.354.451,1.108,1.108,0,0,0,.524.21,1.049,1.049,0,0,0,.556-.079,1.012,1.012,0,0,0,.435-.345,1.079,1.079,0,0,0,.2-.521,1.1,1.1,0,0,0-.085-.567,1.091,1.091,0,0,0-.35-.451,1.07,1.07,0,0,0-.515-.208,1.057,1.057,0,0,0-.55.077A1.1,1.1,0,0,0-2476.492,2382.637Z" transform="translate(2484.323 -2378.891)"/><path class="c" d="M-2469.766,2379.8a1.485,1.485,0,0,1,.729.385,1.625,1.625,0,0,1,.436.738,1.593,1.593,0,0,1,.018.854,1.523,1.523,0,0,1-.422.716,1.83,1.83,0,0,1-.784.439l-1.259.361-.883-3.083,1.281-.367A1.79,1.79,0,0,1-2469.766,2379.8Zm.335,2.325a.958.958,0,0,0,.25-.461,1.111,1.111,0,0,0-.023-.563,1.1,1.1,0,0,0-.284-.493.972.972,0,0,0-.468-.261,1.084,1.084,0,0,0-.555.019l-.682.2.585,2.042.705-.2A1.058,1.058,0,0,0-2469.43,2382.127Z" transform="translate(2482.893 -2378.396)"/><path class="c" d="M-2461.9,2378.786a1.073,1.073,0,0,0-.479-.056,1.071,1.071,0,0,0-.525.2,1.028,1.028,0,0,0-.343.434,1.08,1.08,0,0,0-.078.559,1.081,1.081,0,0,0,.2.527,1.036,1.036,0,0,0,.432.347,1.048,1.048,0,0,0,.558.081,1.118,1.118,0,0,0,.446-.152,1.328,1.328,0,0,0,.376-.324l.405.359a1.882,1.882,0,0,1-.537.47,1.66,1.66,0,0,1-.656.226,1.693,1.693,0,0,1-.868-.122,1.612,1.612,0,0,1-.669-.524,1.64,1.64,0,0,1-.314-.806,1.59,1.59,0,0,1,.128-.854,1.63,1.63,0,0,1,.54-.656,1.732,1.732,0,0,1,.829-.311,1.706,1.706,0,0,1,.684.059,1.652,1.652,0,0,1,.6.313l-.3.486A1.2,1.2,0,0,0-2461.9,2378.786Z" transform="translate(2480.783 -2377.974)"/><path class="c" d="M-2456.258,2378.119a1.609,1.609,0,0,1,.615.592,1.607,1.607,0,0,1,.223.835,1.605,1.605,0,0,1-.227.835,1.637,1.637,0,0,1-.617.6,1.747,1.747,0,0,1-.869.218,1.743,1.743,0,0,1-.867-.221,1.642,1.642,0,0,1-.615-.6,1.61,1.61,0,0,1-.223-.837,1.6,1.6,0,0,1,.226-.833,1.614,1.614,0,0,1,.618-.59,1.763,1.763,0,0,1,.868-.212A1.765,1.765,0,0,1-2456.258,2378.119Zm-1.405.476a1.07,1.07,0,0,0-.4.393,1.069,1.069,0,0,0-.148.551,1.07,1.07,0,0,0,.148.555,1.1,1.1,0,0,0,.4.4,1.043,1.043,0,0,0,.542.148,1.033,1.033,0,0,0,.537-.145,1.078,1.078,0,0,0,.392-.4,1.093,1.093,0,0,0,.146-.554,1.085,1.085,0,0,0-.143-.552,1.063,1.063,0,0,0-.391-.394,1.043,1.043,0,0,0-.535-.146A1.08,1.08,0,0,0-2457.663,2378.595Z" transform="translate(2479.427 -2377.902)"/><path class="c" d="M-2452.391,2378.087l.694.095.774,2.19,1.322-1.9.695.095-.434,3.177-.558-.076.312-2.278-1.256,1.816-.391-.054-.727-2.087-.311,2.279-.553-.076Z" transform="translate(2477.835 -2377.951)"/><path class="c" d="M-2443.5,2380.092a1.023,1.023,0,0,1,.109.874,1.1,1.1,0,0,1-.542.739,1.333,1.333,0,0,1-.983.052l-.677-.182-.245.912-.593-.16.833-3.1,1.27.341A1.384,1.384,0,0,1-2443.5,2380.092Zm-.753,1.126a.545.545,0,0,0,.3-.385.529.529,0,0,0-.065-.473.849.849,0,0,0-.477-.28l-.646-.174-.308,1.146.646.174A.835.835,0,0,0-2444.255,2381.218Z" transform="translate(2476.143 -2378.253)"/><path class="c" d="M-2439.99,2384.591l-.019-.735-1.461-.566-.509.53-.594-.23,2.47-2.483.594.231.135,3.491Zm-1.084-1.713,1.051.407-.035-1.458Z" transform="translate(2475.121 -2378.75)"/><path class="c" d="M-2433.69,2383.887l.525.28-1.512,2.828-.513-.274-.413-2.724-1.041,1.946-.529-.282,1.512-2.829.513.274.415,2.731Z" transform="translate(2473.691 -2379.207)"/><path class="c" d="M-2428.164,2387.2l-2.189,1.109-.6.862-.505-.348.584-.845.257-2.473.512.354-.137,1.737,1.565-.75Z" transform="translate(2472.177 -2379.915)"/></g></g></g><g transform="translate(634.781 3178.852)"><g transform="translate(13.588 32.294)"><path class="c" d="M-2283.251,2412.329h1.6a3.065,3.065,0,0,1,1.289.222,1.306,1.306,0,0,1,.665.677,3.1,3.1,0,0,1,.2,1.208v2.467a3.308,3.308,0,0,1-.2,1.245,1.374,1.374,0,0,1-.656.716,2.731,2.731,0,0,1-1.246.238h-1.647Zm1.614,5.911a.98.98,0,0,0,.594-.141.639.639,0,0,0,.234-.4,4.2,4.2,0,0,0,.051-.757v-2.592a3.063,3.063,0,0,0-.058-.687.538.538,0,0,0-.247-.346,1.171,1.171,0,0,0-.59-.114h-.368v5.033Z" transform="translate(2283.251 -2412.254)"/><path class="c" d="M-2272.741,2412.329h1.32l1.355,6.773h-1.146l-.267-1.564h-1.18l-.275,1.564h-1.163Zm1.128,4.424-.459-2.844-.46,2.844Z" transform="translate(2280.828 -2412.254)"/><path class="c" d="M-2264.281,2412.329h1.229v2.977l1.346-2.977h1.178l-1.3,3.019,1.431,3.754h-1.229l-1.129-3.078-.3.511v2.567h-1.229Z" transform="translate(2278.229 -2412.254)"/><path class="c" d="M-2254.584,2418.6a2.591,2.591,0,0,1-.452-1.651v-2.542a2.526,2.526,0,0,1,.452-1.631,1.838,1.838,0,0,1,1.5-.552,1.829,1.829,0,0,1,1.5.552,2.531,2.531,0,0,1,.451,1.631v2.542a2.585,2.585,0,0,1-.456,1.648,1.8,1.8,0,0,1-1.493.568A1.816,1.816,0,0,1-2254.584,2418.6Zm2.056-.606a1.593,1.593,0,0,0,.142-.752v-3.119a1.589,1.589,0,0,0-.138-.744.577.577,0,0,0-.557-.251.582.582,0,0,0-.56.256,1.538,1.538,0,0,0-.142.74v3.119a1.587,1.587,0,0,0,.142.752.581.581,0,0,0,.56.26A.572.572,0,0,0-2252.527,2418Z" transform="translate(2275.781 -2412.227)"/><path class="c" d="M-2244.582,2413.241h-1.128v-.912h3.47v.912h-1.112v5.862h-1.229Z" transform="translate(2273.313 -2412.254)"/><path class="c" d="M-2236,2412.329h1.321l1.354,6.773h-1.146l-.268-1.564h-1.179l-.276,1.564h-1.163Zm1.129,4.424-.46-2.844-.46,2.844Z" transform="translate(2271.1 -2412.254)"/></g><g transform="translate(16.786 44.535)"><path class="c" d="M-2274.6,2434.6a.756.756,0,0,1-.634-.273,2.115,2.115,0,0,1-.288-1.024c-.03-.259-.06-.6-.09-1.011q-.525.158-1.056.33l-.254.7q-.076.2-.105.288c-.021.057-.057.144-.109.259a1.67,1.67,0,0,1-.135.251c-.037.051-.09.118-.157.2a.651.651,0,0,1-.206.173,1.263,1.263,0,0,1-.577.135.626.626,0,0,1-.5-.221.8.8,0,0,1-.19-.542,1.211,1.211,0,0,1,.015-.188q.1-.719,1.476-1.311.39-1,1.3-3.357a1.225,1.225,0,0,1,.607-.135h.341a1.124,1.124,0,0,1,.274.045q.006.352.344,4.369a1.427,1.427,0,0,0,.083.438.187.187,0,0,0,.18.1,1.018,1.018,0,0,0,.558-.285,3.063,3.063,0,0,0,.626-.712l.209.509-.179.24A2.1,2.1,0,0,1-2274.6,2434.6Zm-3.77-.892c0,.16.06.24.179.24.091,0,.163-.064.218-.194s.165-.384.3-.734Q-2278.37,2433.373-2278.37,2433.709Zm2.578-3.53-.651,1.822q.524-.18.779-.263Z" transform="translate(2278.902 -2428.876)"/><path class="c" d="M-2268.545,2428.972a1.034,1.034,0,0,1,.442-.085.779.779,0,0,1,.386.074q-.075.584-.241,1.835-.344,2.615-.344,2.882t.225.267a.571.571,0,0,0,.4-.243,2.326,2.326,0,0,0,.382-.8,1.111,1.111,0,0,1,.292.442,1.713,1.713,0,0,1-.847,1.155,1.136,1.136,0,0,1-.494.127.886.886,0,0,1-.892-.479,1.222,1.222,0,0,1-1,.487,1.4,1.4,0,0,1-1.023-.412,1.463,1.463,0,0,1-.415-1.087,2.132,2.132,0,0,1,.576-1.566,1.966,1.966,0,0,1,1.462-.585h.045a1.828,1.828,0,0,1,.577.09l.224-1.887A.441.441,0,0,1-2268.545,2428.972Zm-.971,2.6a.908.908,0,0,0-.76.363,1.978,1.978,0,0,0-.334,1.083,1.066,1.066,0,0,0-.008.127.9.9,0,0,0,.176.584.557.557,0,0,0,.453.218q.473,0,.713-.667l.195-1.61A1.2,1.2,0,0,0-2269.516,2431.569Z" transform="translate(2276.986 -2428.879)"/><path class="c" d="M-2263.221,2433.949a2.518,2.518,0,0,1-.675.993,1.47,1.47,0,0,1-1,.386.991.991,0,0,1-.843-.371,1.37,1.37,0,0,1-.282-.851c0-.065,0-.129.008-.194l.255-2.137a1.445,1.445,0,0,1,.51-.09c.329,0,.495.123.495.368q0,.015-.124,1c-.082.656-.124,1.038-.124,1.143a.371.371,0,0,0,.413.426.691.691,0,0,0,.592-.4,3.346,3.346,0,0,0,.442-1.627h-.067a.711.711,0,0,1-.479-.142.508.508,0,0,1-.188-.4.506.506,0,0,1,.143-.375.608.608,0,0,1,.412-.149.68.68,0,0,1,.712.592,2.1,2.1,0,0,0,.322-.06v.427l-.277.045v.127A3.621,3.621,0,0,1-2263.221,2433.949Zm-.641-1.889c0,.085.073.127.218.127h.044c-.034-.135-.087-.2-.156-.2S-2263.862,2432.011-2263.862,2432.06Z" transform="translate(2275.492 -2429.58)"/><path class="c" d="M-2259.355,2433.291a.858.858,0,0,0,.229-.536.4.4,0,0,0-.139-.353.534.534,0,0,0-.3-.094.752.752,0,0,0-.618.394,1.632,1.632,0,0,0-.265.937,1.121,1.121,0,0,0,.258.81.86.86,0,0,0,.641.265,1.77,1.77,0,0,0,1.079-.389,2.925,2.925,0,0,0,.839-1.02,1.766,1.766,0,0,1,.3.39,3.194,3.194,0,0,1-.877,1.1,2.574,2.574,0,0,1-.745.427,2.445,2.445,0,0,1-.888.166,1.553,1.553,0,0,1-1.184-.457,1.773,1.773,0,0,1-.465-1.266,1.842,1.842,0,0,1,.581-1.349,1.906,1.906,0,0,1,1.39-.577,1.607,1.607,0,0,1,.937.251.809.809,0,0,1,.367.679,1.134,1.134,0,0,1-.46.936,2.832,2.832,0,0,1-1.263.5l-.1-.442A1.171,1.171,0,0,0-2259.355,2433.291Z" transform="translate(2274.294 -2429.634)"/><path class="c" d="M-2254.561,2434.5l.18-1.671a.531.531,0,0,0-.1-.337.417.417,0,0,0-.349-.135.506.506,0,0,0-.412.214,1.083,1.083,0,0,0-.213.535c-.18,1.37-.275,2.113-.285,2.234h-1.012l.413-3.53a2.073,2.073,0,0,1,.479-.083q.5,0,.525.367a1.217,1.217,0,0,1,.88-.36,1.186,1.186,0,0,1,.806.255.818.818,0,0,1,.292.645,3.1,3.1,0,0,1-.045.4q-.172,1.139-.173,1.327,0,.344.233.344.509,0,.772-1.064a1.36,1.36,0,0,1,.307.428q-.4,1.318-1.379,1.318a.826.826,0,0,1-.69-.285A.959.959,0,0,1-2254.561,2434.5Z" transform="translate(2273.039 -2429.631)"/><path class="c" d="M-2249.78,2429.374q0,.045-.2,1.61h1.1v.577h-1.177l-.023.188a2.1,2.1,0,0,1,.877,1.6,1.232,1.232,0,0,1-.349.981,1.239,1.239,0,0,1-.836.3.9.9,0,0,1-.712-.258.921.921,0,0,1-.224-.626,1.211,1.211,0,0,1,.014-.179l.233-1.993-.03-.016h-.607c0-.049-.007-.131-.007-.243a.884.884,0,0,1,.068-.334h.645l.24-2.038a1.217,1.217,0,0,1,.42-.059C-2249.97,2428.887-2249.78,2429.048-2249.78,2429.374Zm.075,3.971a1.531,1.531,0,0,0-.449-1.018c-.09.743-.135,1.173-.135,1.288,0,.225.073.337.217.337a.312.312,0,0,0,.262-.146A.8.8,0,0,0-2249.7,2433.345Z" transform="translate(2271.706 -2428.879)"/><path class="c" d="M-2244.544,2431.815q-.307,2.427-.307,2.584,0,.3.218.3a.615.615,0,0,0,.424-.267,1.963,1.963,0,0,0,.363-.8,1.438,1.438,0,0,1,.3.42,1.8,1.8,0,0,1-.547,1.026,1.225,1.225,0,0,1-.772.3.868.868,0,0,1-.877-.5,1.251,1.251,0,0,1-1.041.5,1.182,1.182,0,0,1-.832-.27.915.915,0,0,1-.293-.705,3.054,3.054,0,0,1,.037-.366q.172-1.395.263-2.218a1.279,1.279,0,0,1,.427-.083,2.068,2.068,0,0,1,.292.015.324.324,0,0,1,.187.113.4.4,0,0,1,.09.277l-.247,1.911a1.06,1.06,0,0,0-.015.165q0,.442.4.443a.729.729,0,0,0,.622-.368c0-.054,0-.142.015-.263l.247-1.993a.441.441,0,0,1,.225-.213.964.964,0,0,1,.431-.087A.766.766,0,0,1-2244.544,2431.815Z" transform="translate(2270.697 -2429.634)"/><path class="c" d="M-2240.441,2432.721q0-.329-.3-.329c-.2,0-.363.129-.483.389a1.82,1.82,0,0,1,.81,1.431,1.139,1.139,0,0,1-.323.876,1.142,1.142,0,0,1-.809.3.83.83,0,0,1-.712-.3,1.255,1.255,0,0,1-.225-.768c0-.095,0-.165.007-.21l.262-2.285a1.856,1.856,0,0,1,.547-.083c.3,0,.458.113.458.338v.015a.958.958,0,0,1,.764-.353.811.811,0,0,1,.524.154.5.5,0,0,1,.187.409.518.518,0,0,1-.191.416.742.742,0,0,1-.5.162h-.03A.837.837,0,0,0-2240.441,2432.721Zm-.914.584q-.136,1.081-.136,1.087c0,.21.085.314.255.314q.33,0,.329-.531A1.239,1.239,0,0,0-2241.355,2433.305Z" transform="translate(2269.261 -2429.634)"/><path class="c" d="M-2236.444,2433.291a.859.859,0,0,0,.229-.536.4.4,0,0,0-.138-.353.536.536,0,0,0-.3-.094.751.751,0,0,0-.618.394,1.633,1.633,0,0,0-.266.937,1.12,1.12,0,0,0,.259.81.855.855,0,0,0,.64.265,1.773,1.773,0,0,0,1.08-.389,2.92,2.92,0,0,0,.839-1.02,1.743,1.743,0,0,1,.3.39,3.166,3.166,0,0,1-.877,1.1,2.573,2.573,0,0,1-.745.427,2.441,2.441,0,0,1-.888.166,1.555,1.555,0,0,1-1.184-.457,1.774,1.774,0,0,1-.465-1.266,1.845,1.845,0,0,1,.581-1.349,1.907,1.907,0,0,1,1.39-.577,1.608,1.608,0,0,1,.937.251.811.811,0,0,1,.368.679,1.131,1.131,0,0,1-.461.936,2.831,2.831,0,0,1-1.263.5l-.1-.442A1.173,1.173,0,0,0-2236.444,2433.291Z" transform="translate(2268.228 -2429.634)"/></g><g transform="translate(28.459 53.503)"><path class="c" d="M-2262.443,2441.843a1.71,1.71,0,0,1-.341.107c-.158.046-.24.072-.242.075v-.481a3.1,3.1,0,0,0,.408-.179,1.052,1.052,0,0,0,.324-.235h.5v3.779h-.648Z" transform="translate(2263.026 -2441.087)"/><path class="c" d="M-2259.238,2444.7a1.041,1.041,0,0,1-.235-.717v-.056h.621a.806.806,0,0,0,.068.387.277.277,0,0,0,.263.117.258.258,0,0,0,.254-.176,1.757,1.757,0,0,0,.072-.6v-.448a.422.422,0,0,1-.2.173.779.779,0,0,1-.322.06q-.791,0-.792-1.11a1.584,1.584,0,0,1,.235-.927.853.853,0,0,1,.748-.333.865.865,0,0,1,.747.329,1.469,1.469,0,0,1,.243.888v1.339a1.809,1.809,0,0,1-.221.966.84.84,0,0,1-.769.35A.938.938,0,0,1-2259.238,2444.7Zm1.043-1.957v-.588a1.069,1.069,0,0,0-.072-.434.262.262,0,0,0-.26-.16.259.259,0,0,0-.258.171,1.3,1.3,0,0,0-.073.5,3.506,3.506,0,0,0,.017.4.435.435,0,0,0,.088.231.283.283,0,0,0,.231.088A.361.361,0,0,0-2258.2,2442.747Z" transform="translate(2262.095 -2441.072)"/><path class="c" d="M-2255.358,2444.677a1.451,1.451,0,0,1-.207-.852h.63a1.282,1.282,0,0,0,.071.485.27.27,0,0,0,.275.163.268.268,0,0,0,.228-.1.56.56,0,0,0,.1-.271,3.9,3.9,0,0,0,.021-.474,1.593,1.593,0,0,0-.07-.551.28.28,0,0,0-.29-.177.3.3,0,0,0-.221.089.52.52,0,0,0-.133.242h-.555l.038-2.1h1.7v.579h-1.157l-.037.909a.539.539,0,0,1,.229-.143.965.965,0,0,1,.326-.053.653.653,0,0,1,.595.306,1.6,1.6,0,0,1,.194.86,2.858,2.858,0,0,1-.081.733.879.879,0,0,1-.3.47.937.937,0,0,1-.607.174A.861.861,0,0,1-2255.358,2444.677Z" transform="translate(2261.051 -2441.087)"/><path class="c" d="M-2250.736,2441.625h-1.022v-.5h1.656v.392l-.764,3.387h-.625Z" transform="translate(2260.043 -2441.087)"/></g><g transform="translate(0 0)"><path class="c" d="M-2238.975,2396.771v-10.325a3.717,3.717,0,0,0-1.73-2.98l-25.844-14.748h0a3.548,3.548,0,0,0-1.725-.413,3.546,3.546,0,0,0-1.728.414l-25.8,14.747a3.72,3.72,0,0,0-1.73,2.981v10.325h-4.2v14.2l4.2,3.755v1.834a3.722,3.722,0,0,0,1.73,2.979l25.845,14.748a3.533,3.533,0,0,0,1.725.412,3.522,3.522,0,0,0,1.726-.413l25.8-14.746a3.719,3.719,0,0,0,1.729-2.98v-1.7l4.352-3.889h.012v-14.2Zm-57.583-10.325a2.818,2.818,0,0,1,1.24-2.138l25.8-14.744a2.565,2.565,0,0,1,1.245-.288,2.59,2.59,0,0,1,1.243.286l25.844,14.748a2.815,2.815,0,0,1,1.242,2.137v10.325H-2242V2387.9a3.174,3.174,0,0,0-1.465-2.522l-23.35-13.325a2.988,2.988,0,0,0-1.46-.347,2.976,2.976,0,0,0-1.464.349l-23.308,13.323a3.183,3.183,0,0,0-1.465,2.523v8.873h-2.049Zm52.973,10.325-8.4-10.476-3.474,6.154,3.939-.693-3.3,5.015h-13.038l13.745-9.473-7.568-9.714-4.417,7.328,5.591-1.106-8.244,8.608,6.325-1.764-5.65,6.12h-10.317l13.947-16.853-9.542,9.609-1.175-1.608-2.813,3.759,3.147-.434-3.609,5.527h-6.29l7.37-7.555-6.412,4.648-2.247-1.174.657,4.081h-4.66l3.251-3.71-6.516,3.71h-.742V2387.9a2.727,2.727,0,0,1,1.22-2.1l23.309-13.322a2.519,2.519,0,0,1,1.223-.285,2.511,2.511,0,0,1,1.219.285l.122-.211-.121.211,23.351,13.323a2.725,2.725,0,0,1,1.22,2.1v8.873Zm-57.178.97h65.182V2410h-65.182Zm6.74,13.23h51.543v4.136a2.72,2.72,0,0,1-1.22,2.1l-23.309,13.324a2.56,2.56,0,0,1-1.221.282,2.554,2.554,0,0,1-1.221-.281l-23.35-13.327a2.719,2.719,0,0,1-1.221-2.1Zm52.837,7.725-25.8,14.747a2.611,2.611,0,0,1-1.244.285,2.613,2.613,0,0,1-1.244-.285l-25.844-14.748a2.814,2.814,0,0,1-1.241-2.136v-5.589h2.049v4.136a3.181,3.181,0,0,0,1.465,2.522l23.352,13.325a3.021,3.021,0,0,0,1.461.345,3.037,3.037,0,0,0,1.462-.345l23.308-13.323a3.179,3.179,0,0,0,1.465-2.523v-4.136h2.051v5.589A2.817,2.817,0,0,1-2241.186,2418.7Z" transform="translate(2301.732 -2368.305)"/></g></g></g><g transform="translate(-6.835 -3178.852)"><g transform="translate(420.835 3185.908)"><g transform="translate(0)"><g transform="translate(54.78 11.995)"><path class="c" d="M-2451.521,2421.1s-.144,1.119,2.668,2.718,5.926,3.223,8.972,5.191c1.435.887,3.488,2.377,8.216,1.49s11.335-1.423,26.119-14.231c1.092-.957,2.274-2.008,2-2.381s-.691-.011-1.6.745-12.808,9.091-19.07,11.465c-1.693.654-2.873.842-3.068-.216a3.076,3.076,0,0,1,1.859-2.925c1.186-.589,9.115-4.343,15.057-17.073.871-2.07,1.56-6.287.792-6.631,0,0-.292-.209-.526.8a21.657,21.657,0,0,1-1.991,5.995c-1.205,2.013-7.032,12.184-14.018,13.833-1.068.076-2.283,0-2.991-2.2s-1.454-4.267-2.062-6.273a17.694,17.694,0,0,1,.6-9.252,22.3,22.3,0,0,0,1.357-5.756c.257-1.291.511-2.075.358-2.16s-.208.029-.325.345-.982,2.676-1.635,4.005-3.087,5.431-3.182,10.062,3.005,8.947,3.212,12.312-.732,6.123-3.427,6.108a7.8,7.8,0,0,1-5.215-1.685c-.583-.64-.277-1.225.314-1.346s2.673-.664,2.673-.664.678-.107.629-.618a5.553,5.553,0,0,0-.16-.9s.039-.412-.907-.108a14.133,14.133,0,0,1-2.387.53,16.977,16.977,0,0,1-2.559.332,12.189,12.189,0,0,1-4.063-1.454c-1.563-.882-3.527-1.992-4.055-2.8s-1.5-1.321-1.591-.575S-2451.521,2421.1-2451.521,2421.1Z" transform="translate(2451.564 -2394.216)"/></g><g transform="translate(0 11.995)"><path class="c" d="M-2478.052,2421.1s.144,1.119-2.669,2.718-5.925,3.223-8.971,5.191c-1.434.887-3.487,2.377-8.216,1.49s-11.335-1.423-26.118-14.231c-1.093-.957-2.276-2.008-2-2.381s.689-.011,1.6.745,12.807,9.091,19.07,11.465c1.692.654,2.874.842,3.067-.216a3.077,3.077,0,0,0-1.858-2.925c-1.187-.589-9.116-4.343-15.058-17.073-.871-2.07-1.56-6.287-.792-6.631,0,0,.293-.209.528.8a21.662,21.662,0,0,0,1.989,5.995c1.207,2.013,7.034,12.184,14.019,13.833,1.069.076,2.284,0,2.992-2.2s1.453-4.267,2.063-6.273a17.7,17.7,0,0,0-.6-9.252,22.272,22.272,0,0,1-1.355-5.756c-.257-1.291-.514-2.075-.36-2.16s.208.029.327.345.981,2.676,1.633,4.005,3.088,5.431,3.183,10.062-3,8.947-3.212,12.312.732,6.123,3.427,6.108a7.8,7.8,0,0,0,5.214-1.685c.584-.64.277-1.225-.313-1.346s-2.674-.664-2.674-.664-.679-.107-.631-.618a5.582,5.582,0,0,1,.16-.9s-.039-.412.908-.108a14.149,14.149,0,0,0,2.387.53,16.985,16.985,0,0,0,2.558.332,12.189,12.189,0,0,0,4.064-1.454c1.563-.882,3.526-1.992,4.055-2.8s1.495-1.321,1.591-.575S-2478.052,2421.1-2478.052,2421.1Z" transform="translate(2526.068 -2394.216)"/></g><g transform="translate(34.567 13.049)"><path class="c" d="M-2478.3,2407.034a5.339,5.339,0,0,1-.758-3.1v-4.083a5.27,5.27,0,0,1,.78-3.143,3.127,3.127,0,0,1,2.687-1.059,3.273,3.273,0,0,1,2.581.894,3.928,3.928,0,0,1,.78,2.649v.629h-2.116v-.689a5.317,5.317,0,0,0-.082-1.051,1.006,1.006,0,0,0-.346-.6,1.244,1.244,0,0,0-.787-.21,1.123,1.123,0,0,0-.825.271,1.3,1.3,0,0,0-.353.691,5.829,5.829,0,0,0-.083,1.094v5.089a3.338,3.338,0,0,0,.278,1.546,1.078,1.078,0,0,0,1.043.509,1.082,1.082,0,0,0,1.043-.54,3.51,3.51,0,0,0,.293-1.621v-1.14h-1.306v-1.4h3.3v6.168h-1.442l-.149-1.185a2.06,2.06,0,0,1-2.056,1.351A2.828,2.828,0,0,1-2478.3,2407.034Z" transform="translate(2479.055 -2395.65)"/><path class="c" d="M-2463.743,2395.834h2.371l2.432,12.157H-2461l-.481-2.806h-2.116l-.495,2.806h-2.087Zm2.025,7.94-.825-5.1-.825,5.1Z" transform="translate(2475.645 -2395.699)"/><path class="c" d="M-2452.29,2397.471h-2.026v-1.637h6.228v1.637h-2v10.52h-2.207Z" transform="translate(2472.506 -2395.699)"/><path class="c" d="M-2441.992,2407.177a4.377,4.377,0,0,1-.893-2.776l1.906-.375a4.2,4.2,0,0,0,.368,1.764,1.071,1.071,0,0,0,1.012.607.918.918,0,0,0,.758-.307,1.29,1.29,0,0,0,.248-.833,2.179,2.179,0,0,0-.323-1.217,5.85,5.85,0,0,0-1.013-1.11l-1.531-1.336a4.757,4.757,0,0,1-1.058-1.3,3.489,3.489,0,0,1-.353-1.645,2.881,2.881,0,0,1,.841-2.221,3.288,3.288,0,0,1,2.327-.781,2.627,2.627,0,0,1,2.236.894,4.438,4.438,0,0,1,.78,2.409l-1.906.329a4.487,4.487,0,0,0-.262-1.486.834.834,0,0,0-.848-.51,1.037,1.037,0,0,0-.8.315,1.162,1.162,0,0,0-.293.826,1.822,1.822,0,0,0,.24.975,4.2,4.2,0,0,0,.75.856l1.516,1.335a6.662,6.662,0,0,1,1.336,1.591,3.782,3.782,0,0,1,.48,1.936,3.075,3.075,0,0,1-.383,1.546,2.724,2.724,0,0,1-1.072,1.058,3.227,3.227,0,0,1-1.593.383A3.109,3.109,0,0,1-2441.992,2407.177Z" transform="translate(2469.479 -2395.65)"/></g><g transform="translate(46.535 29.538)"><path class="c" d="M-2462.778,2418.1h.965v2.406h-.46v-2h-.5Z" transform="translate(2462.778 -2418.083)"/><path class="c" d="M-2459.845,2420.1a.976.976,0,0,0,.275.04.569.569,0,0,0,.484-.214.932.932,0,0,0,.155-.59.616.616,0,0,1-.254.237.818.818,0,0,1-.379.083.749.749,0,0,1-.559-.209.77.77,0,0,1-.206-.564.854.854,0,0,1,.1-.429.722.722,0,0,1,.3-.282.973.973,0,0,1,.451-.1.962.962,0,0,1,.527.141.9.9,0,0,1,.34.4,1.534,1.534,0,0,1,.119.629,1.638,1.638,0,0,1-.129.67,1.011,1.011,0,0,1-.366.445.979.979,0,0,1-.553.156,1.477,1.477,0,0,1-.38-.052,1.438,1.438,0,0,1-.348-.137l.179-.34A.88.88,0,0,0-2459.845,2420.1Zm.062-1.527a.4.4,0,0,0-.124.313.4.4,0,0,0,.116.3.451.451,0,0,0,.32.11.477.477,0,0,0,.347-.122.4.4,0,0,0,.124-.3.4.4,0,0,0-.116-.288.45.45,0,0,0-.341-.124A.459.459,0,0,0-2459.784,2418.577Z" transform="translate(2462.13 -2418.076)"/><path class="c" d="M-2455.386,2418.246a.556.556,0,0,1,.218.462.525.525,0,0,1-.089.3.6.6,0,0,1-.247.209.738.738,0,0,1,.335.24.61.61,0,0,1,.121.371.615.615,0,0,1-.113.368.709.709,0,0,1-.325.242,1.332,1.332,0,0,1-.493.084,1.335,1.335,0,0,1-.493-.084.731.731,0,0,1-.324-.238.6.6,0,0,1-.113-.364.594.594,0,0,1,.127-.377.752.752,0,0,1,.351-.242.667.667,0,0,1-.263-.22.532.532,0,0,1-.095-.306.532.532,0,0,1,.219-.448.945.945,0,0,1,.59-.167A.944.944,0,0,1-2455.386,2418.246Zm-.961,1.266a.318.318,0,0,0-.13.271.333.333,0,0,0,.13.279.6.6,0,0,0,.368.1.6.6,0,0,0,.366-.1.324.324,0,0,0,.132-.277.32.32,0,0,0-.132-.273.609.609,0,0,0-.369-.1A.6.6,0,0,0-2456.347,2419.512Zm.058-1.021a.285.285,0,0,0-.112.241.283.283,0,0,0,.112.24.493.493,0,0,0,.31.086.491.491,0,0,0,.31-.086.286.286,0,0,0,.109-.24.288.288,0,0,0-.109-.241.493.493,0,0,0-.31-.086A.5.5,0,0,0-2456.289,2418.491Z" transform="translate(2461.225 -2418.076)"/><path class="c" d="M-2453.653,2418.1h1.856v.344l-.991,2.062h-.487l.959-2h-.924l0,.341h-.409Z" transform="translate(2460.362 -2418.083)"/></g><g transform="translate(39.492 48.784)"><path class="c" d="M-2469.986,2444.54a.729.729,0,0,1,.314.623.764.764,0,0,1-.158.484.763.763,0,0,1-.436.27.879.879,0,0,1,.533.292.856.856,0,0,1,.193.569.81.81,0,0,1-.338.688,1.522,1.522,0,0,1-.922.25h-1.556v-3.4h1.512A1.431,1.431,0,0,1-2469.986,2444.54Zm-.5,1.051a.372.372,0,0,0,.143-.312.355.355,0,0,0-.143-.3.64.64,0,0,0-.4-.1h-.826v.827h.826A.633.633,0,0,0-2470.482,2445.59Zm.089,1.445a.392.392,0,0,0,.176-.341.378.378,0,0,0-.176-.329.835.835,0,0,0-.486-.113h-.826v.9h.826A.816.816,0,0,0-2470.393,2447.035Z" transform="translate(2472.357 -2444.267)"/><path class="c" d="M-2464.639,2447.715l-.3-.719h-1.663l-.3.719h-.677l1.493-3.4h.677l1.473,3.4Zm-1.731-1.279h1.2l-.593-1.429Z" transform="translate(2471.093 -2444.267)"/><path class="c" d="M-2459.272,2447.715l-.589-1.006a1.136,1.136,0,0,1-.121.005h-.769v1h-.651v-3.4h1.42a1.529,1.529,0,0,1,1.021.307,1.073,1.073,0,0,1,.36.865,1.277,1.277,0,0,1-.173.682,1.045,1.045,0,0,1-.5.422l.749,1.128Zm-1.479-1.575h.769a.865.865,0,0,0,.564-.161.579.579,0,0,0,.194-.477.56.56,0,0,0-.194-.467.882.882,0,0,0-.564-.155h-.769Z" transform="translate(2469.457 -2444.267)"/><path class="c" d="M-2453.829,2447.715l-.588-1.006a1.14,1.14,0,0,1-.121.005h-.768v1h-.652v-3.4h1.42a1.532,1.532,0,0,1,1.022.307,1.079,1.079,0,0,1,.36.865,1.283,1.283,0,0,1-.173.682,1.053,1.053,0,0,1-.5.422l.748,1.128Zm-1.478-1.575h.768a.87.87,0,0,0,.565-.161.581.581,0,0,0,.194-.477.563.563,0,0,0-.194-.467.887.887,0,0,0-.565-.155h-.768Z" transform="translate(2468.016 -2444.267)"/><path class="c" d="M-2448.143,2444.48a1.7,1.7,0,0,1,.654.627,1.693,1.693,0,0,1,.239.885,1.706,1.706,0,0,1-.239.887,1.733,1.733,0,0,1-.654.635,1.846,1.846,0,0,1-.921.234,1.841,1.841,0,0,1-.921-.234,1.737,1.737,0,0,1-.654-.635,1.7,1.7,0,0,1-.238-.887,1.686,1.686,0,0,1,.238-.885,1.7,1.7,0,0,1,.654-.627,1.869,1.869,0,0,1,.921-.229A1.874,1.874,0,0,1-2448.143,2444.48Zm-1.49.508a1.147,1.147,0,0,0-.423.417,1.14,1.14,0,0,0-.155.587,1.136,1.136,0,0,0,.157.588,1.182,1.182,0,0,0,.423.424,1.122,1.122,0,0,0,.576.155,1.1,1.1,0,0,0,.57-.155,1.158,1.158,0,0,0,.416-.424,1.164,1.164,0,0,0,.153-.588,1.153,1.153,0,0,0-.153-.587,1.138,1.138,0,0,0-.416-.417,1.106,1.106,0,0,0-.57-.154A1.138,1.138,0,0,0-2449.633,2444.989Z" transform="translate(2466.671 -2444.251)"/><path class="c" d="M-2442.128,2444.31h.633v3.4h-.618l-1.751-2.343v2.343h-.637v-3.4h.617l1.756,2.35Z" transform="translate(2464.983 -2444.267)"/></g><g transform="translate(28.843)"><path class="c" d="M-2486.84,2387.894l1.777-1.318.315.434-1.28.949.516.695,1.166-.865.319.431-1.166.864.756,1.019-.492.365Z" transform="translate(2486.84 -2380.198)"/><path class="c" d="M-2480.761,2384.225a1.6,1.6,0,0,1,.83.2,1.608,1.608,0,0,1,.614.607,1.6,1.6,0,0,1,.227.836,1.63,1.63,0,0,1-.231.826,1.732,1.732,0,0,1-.64.626,1.737,1.737,0,0,1-.86.248,1.631,1.631,0,0,1-.835-.207,1.609,1.609,0,0,1-.615-.609,1.593,1.593,0,0,1-.226-.833,1.616,1.616,0,0,1,.235-.821,1.788,1.788,0,0,1,.642-.623A1.76,1.76,0,0,1-2480.761,2384.225Zm-.972,1.12a1.085,1.085,0,0,0-.146.541,1.063,1.063,0,0,0,.152.55,1.064,1.064,0,0,0,.407.4,1.109,1.109,0,0,0,.545.144,1.061,1.061,0,0,0,.543-.147,1.025,1.025,0,0,0,.39-.4,1.081,1.081,0,0,0,.137-.542,1.1,1.1,0,0,0-.154-.551,1.082,1.082,0,0,0-.4-.4,1.063,1.063,0,0,0-.537-.143,1.051,1.051,0,0,0-.535.145A1.077,1.077,0,0,0-2481.733,2385.345Z" transform="translate(2485.69 -2379.576)"/><path class="c" d="M-2475.389,2381.645a1.6,1.6,0,0,1,.8.3,1.593,1.593,0,0,1,.534.678,1.59,1.59,0,0,1,.122.857,1.639,1.639,0,0,1-.332.792,1.742,1.742,0,0,1-.711.542,1.742,1.742,0,0,1-.885.14,1.631,1.631,0,0,1-.8-.309,1.6,1.6,0,0,1-.534-.679,1.589,1.589,0,0,1-.122-.855,1.615,1.615,0,0,1,.335-.786,1.772,1.772,0,0,1,.713-.538A1.778,1.778,0,0,1-2475.389,2381.645Zm-1.1.992a1.078,1.078,0,0,0-.211.519,1.067,1.067,0,0,0,.082.566,1.059,1.059,0,0,0,.354.451,1.108,1.108,0,0,0,.524.21,1.049,1.049,0,0,0,.556-.079,1.012,1.012,0,0,0,.435-.345,1.079,1.079,0,0,0,.2-.521,1.1,1.1,0,0,0-.085-.567,1.091,1.091,0,0,0-.35-.451,1.07,1.07,0,0,0-.515-.208,1.057,1.057,0,0,0-.55.077A1.1,1.1,0,0,0-2476.492,2382.637Z" transform="translate(2484.323 -2378.891)"/><path class="c" d="M-2469.766,2379.8a1.485,1.485,0,0,1,.729.385,1.625,1.625,0,0,1,.436.738,1.593,1.593,0,0,1,.018.854,1.523,1.523,0,0,1-.422.716,1.83,1.83,0,0,1-.784.439l-1.259.361-.883-3.083,1.281-.367A1.79,1.79,0,0,1-2469.766,2379.8Zm.335,2.325a.958.958,0,0,0,.25-.461,1.111,1.111,0,0,0-.023-.563,1.1,1.1,0,0,0-.284-.493.972.972,0,0,0-.468-.261,1.084,1.084,0,0,0-.555.019l-.682.2.585,2.042.705-.2A1.058,1.058,0,0,0-2469.43,2382.127Z" transform="translate(2482.893 -2378.396)"/><path class="c" d="M-2461.9,2378.786a1.073,1.073,0,0,0-.479-.056,1.071,1.071,0,0,0-.525.2,1.028,1.028,0,0,0-.343.434,1.08,1.08,0,0,0-.078.559,1.081,1.081,0,0,0,.2.527,1.036,1.036,0,0,0,.432.347,1.048,1.048,0,0,0,.558.081,1.118,1.118,0,0,0,.446-.152,1.328,1.328,0,0,0,.376-.324l.405.359a1.882,1.882,0,0,1-.537.47,1.66,1.66,0,0,1-.656.226,1.693,1.693,0,0,1-.868-.122,1.612,1.612,0,0,1-.669-.524,1.64,1.64,0,0,1-.314-.806,1.59,1.59,0,0,1,.128-.854,1.63,1.63,0,0,1,.54-.656,1.732,1.732,0,0,1,.829-.311,1.706,1.706,0,0,1,.684.059,1.652,1.652,0,0,1,.6.313l-.3.486A1.2,1.2,0,0,0-2461.9,2378.786Z" transform="translate(2480.783 -2377.974)"/><path class="c" d="M-2456.258,2378.119a1.609,1.609,0,0,1,.615.592,1.607,1.607,0,0,1,.223.835,1.605,1.605,0,0,1-.227.835,1.637,1.637,0,0,1-.617.6,1.747,1.747,0,0,1-.869.218,1.743,1.743,0,0,1-.867-.221,1.642,1.642,0,0,1-.615-.6,1.61,1.61,0,0,1-.223-.837,1.6,1.6,0,0,1,.226-.833,1.614,1.614,0,0,1,.618-.59,1.763,1.763,0,0,1,.868-.212A1.765,1.765,0,0,1-2456.258,2378.119Zm-1.405.476a1.07,1.07,0,0,0-.4.393,1.069,1.069,0,0,0-.148.551,1.07,1.07,0,0,0,.148.555,1.1,1.1,0,0,0,.4.4,1.043,1.043,0,0,0,.542.148,1.033,1.033,0,0,0,.537-.145,1.078,1.078,0,0,0,.392-.4,1.093,1.093,0,0,0,.146-.554,1.085,1.085,0,0,0-.143-.552,1.063,1.063,0,0,0-.391-.394,1.043,1.043,0,0,0-.535-.146A1.08,1.08,0,0,0-2457.663,2378.595Z" transform="translate(2479.427 -2377.902)"/><path class="c" d="M-2452.391,2378.087l.694.095.774,2.19,1.322-1.9.695.095-.434,3.177-.558-.076.312-2.278-1.256,1.816-.391-.054-.727-2.087-.311,2.279-.553-.076Z" transform="translate(2477.835 -2377.951)"/><path class="c" d="M-2443.5,2380.092a1.023,1.023,0,0,1,.109.874,1.1,1.1,0,0,1-.542.739,1.333,1.333,0,0,1-.983.052l-.677-.182-.245.912-.593-.16.833-3.1,1.27.341A1.384,1.384,0,0,1-2443.5,2380.092Zm-.753,1.126a.545.545,0,0,0,.3-.385.529.529,0,0,0-.065-.473.849.849,0,0,0-.477-.28l-.646-.174-.308,1.146.646.174A.835.835,0,0,0-2444.255,2381.218Z" transform="translate(2476.143 -2378.253)"/><path class="c" d="M-2439.99,2384.591l-.019-.735-1.461-.566-.509.53-.594-.23,2.47-2.483.594.231.135,3.491Zm-1.084-1.713,1.051.407-.035-1.458Z" transform="translate(2475.121 -2378.75)"/><path class="c" d="M-2433.69,2383.887l.525.28-1.512,2.828-.513-.274-.413-2.724-1.041,1.946-.529-.282,1.512-2.829.513.274.415,2.731Z" transform="translate(2473.691 -2379.207)"/><path class="c" d="M-2428.164,2387.2l-2.189,1.109-.6.862-.505-.348.584-.845.257-2.473.512.354-.137,1.737,1.565-.75Z" transform="translate(2472.177 -2379.915)"/></g></g></g><g transform="translate(634.781 3178.852)"><g transform="translate(13.588 32.294)"><path class="c" d="M-2283.251,2412.329h1.6a3.065,3.065,0,0,1,1.289.222,1.306,1.306,0,0,1,.665.677,3.1,3.1,0,0,1,.2,1.208v2.467a3.308,3.308,0,0,1-.2,1.245,1.374,1.374,0,0,1-.656.716,2.731,2.731,0,0,1-1.246.238h-1.647Zm1.614,5.911a.98.98,0,0,0,.594-.141.639.639,0,0,0,.234-.4,4.2,4.2,0,0,0,.051-.757v-2.592a3.063,3.063,0,0,0-.058-.687.538.538,0,0,0-.247-.346,1.171,1.171,0,0,0-.59-.114h-.368v5.033Z" transform="translate(2283.251 -2412.254)"/><path class="c" d="M-2272.741,2412.329h1.32l1.355,6.773h-1.146l-.267-1.564h-1.18l-.275,1.564h-1.163Zm1.128,4.424-.459-2.844-.46,2.844Z" transform="translate(2280.828 -2412.254)"/><path class="c" d="M-2264.281,2412.329h1.229v2.977l1.346-2.977h1.178l-1.3,3.019,1.431,3.754h-1.229l-1.129-3.078-.3.511v2.567h-1.229Z" transform="translate(2278.229 -2412.254)"/><path class="c" d="M-2254.584,2418.6a2.591,2.591,0,0,1-.452-1.651v-2.542a2.526,2.526,0,0,1,.452-1.631,1.838,1.838,0,0,1,1.5-.552,1.829,1.829,0,0,1,1.5.552,2.531,2.531,0,0,1,.451,1.631v2.542a2.585,2.585,0,0,1-.456,1.648,1.8,1.8,0,0,1-1.493.568A1.816,1.816,0,0,1-2254.584,2418.6Zm2.056-.606a1.593,1.593,0,0,0,.142-.752v-3.119a1.589,1.589,0,0,0-.138-.744.577.577,0,0,0-.557-.251.582.582,0,0,0-.56.256,1.538,1.538,0,0,0-.142.74v3.119a1.587,1.587,0,0,0,.142.752.581.581,0,0,0,.56.26A.572.572,0,0,0-2252.527,2418Z" transform="translate(2275.781 -2412.227)"/><path class="c" d="M-2244.582,2413.241h-1.128v-.912h3.47v.912h-1.112v5.862h-1.229Z" transform="translate(2273.313 -2412.254)"/><path class="c" d="M-2236,2412.329h1.321l1.354,6.773h-1.146l-.268-1.564h-1.179l-.276,1.564h-1.163Zm1.129,4.424-.46-2.844-.46,2.844Z" transform="translate(2271.1 -2412.254)"/></g><g transform="translate(16.786 44.535)"><path class="c" d="M-2274.6,2434.6a.756.756,0,0,1-.634-.273,2.115,2.115,0,0,1-.288-1.024c-.03-.259-.06-.6-.09-1.011q-.525.158-1.056.33l-.254.7q-.076.2-.105.288c-.021.057-.057.144-.109.259a1.67,1.67,0,0,1-.135.251c-.037.051-.09.118-.157.2a.651.651,0,0,1-.206.173,1.263,1.263,0,0,1-.577.135.626.626,0,0,1-.5-.221.8.8,0,0,1-.19-.542,1.211,1.211,0,0,1,.015-.188q.1-.719,1.476-1.311.39-1,1.3-3.357a1.225,1.225,0,0,1,.607-.135h.341a1.124,1.124,0,0,1,.274.045q.006.352.344,4.369a1.427,1.427,0,0,0,.083.438.187.187,0,0,0,.18.1,1.018,1.018,0,0,0,.558-.285,3.063,3.063,0,0,0,.626-.712l.209.509-.179.24A2.1,2.1,0,0,1-2274.6,2434.6Zm-3.77-.892c0,.16.06.24.179.24.091,0,.163-.064.218-.194s.165-.384.3-.734Q-2278.37,2433.373-2278.37,2433.709Zm2.578-3.53-.651,1.822q.524-.18.779-.263Z" transform="translate(2278.902 -2428.876)"/><path class="c" d="M-2268.545,2428.972a1.034,1.034,0,0,1,.442-.085.779.779,0,0,1,.386.074q-.075.584-.241,1.835-.344,2.615-.344,2.882t.225.267a.571.571,0,0,0,.4-.243,2.326,2.326,0,0,0,.382-.8,1.111,1.111,0,0,1,.292.442,1.713,1.713,0,0,1-.847,1.155,1.136,1.136,0,0,1-.494.127.886.886,0,0,1-.892-.479,1.222,1.222,0,0,1-1,.487,1.4,1.4,0,0,1-1.023-.412,1.463,1.463,0,0,1-.415-1.087,2.132,2.132,0,0,1,.576-1.566,1.966,1.966,0,0,1,1.462-.585h.045a1.828,1.828,0,0,1,.577.09l.224-1.887A.441.441,0,0,1-2268.545,2428.972Zm-.971,2.6a.908.908,0,0,0-.76.363,1.978,1.978,0,0,0-.334,1.083,1.066,1.066,0,0,0-.008.127.9.9,0,0,0,.176.584.557.557,0,0,0,.453.218q.473,0,.713-.667l.195-1.61A1.2,1.2,0,0,0-2269.516,2431.569Z" transform="translate(2276.986 -2428.879)"/><path class="c" d="M-2263.221,2433.949a2.518,2.518,0,0,1-.675.993,1.47,1.47,0,0,1-1,.386.991.991,0,0,1-.843-.371,1.37,1.37,0,0,1-.282-.851c0-.065,0-.129.008-.194l.255-2.137a1.445,1.445,0,0,1,.51-.09c.329,0,.495.123.495.368q0,.015-.124,1c-.082.656-.124,1.038-.124,1.143a.371.371,0,0,0,.413.426.691.691,0,0,0,.592-.4,3.346,3.346,0,0,0,.442-1.627h-.067a.711.711,0,0,1-.479-.142.508.508,0,0,1-.188-.4.506.506,0,0,1,.143-.375.608.608,0,0,1,.412-.149.68.68,0,0,1,.712.592,2.1,2.1,0,0,0,.322-.06v.427l-.277.045v.127A3.621,3.621,0,0,1-2263.221,2433.949Zm-.641-1.889c0,.085.073.127.218.127h.044c-.034-.135-.087-.2-.156-.2S-2263.862,2432.011-2263.862,2432.06Z" transform="translate(2275.492 -2429.58)"/><path class="c" d="M-2259.355,2433.291a.858.858,0,0,0,.229-.536.4.4,0,0,0-.139-.353.534.534,0,0,0-.3-.094.752.752,0,0,0-.618.394,1.632,1.632,0,0,0-.265.937,1.121,1.121,0,0,0,.258.81.86.86,0,0,0,.641.265,1.77,1.77,0,0,0,1.079-.389,2.925,2.925,0,0,0,.839-1.02,1.766,1.766,0,0,1,.3.39,3.194,3.194,0,0,1-.877,1.1,2.574,2.574,0,0,1-.745.427,2.445,2.445,0,0,1-.888.166,1.553,1.553,0,0,1-1.184-.457,1.773,1.773,0,0,1-.465-1.266,1.842,1.842,0,0,1,.581-1.349,1.906,1.906,0,0,1,1.39-.577,1.607,1.607,0,0,1,.937.251.809.809,0,0,1,.367.679,1.134,1.134,0,0,1-.46.936,2.832,2.832,0,0,1-1.263.5l-.1-.442A1.171,1.171,0,0,0-2259.355,2433.291Z" transform="translate(2274.294 -2429.634)"/><path class="c" d="M-2254.561,2434.5l.18-1.671a.531.531,0,0,0-.1-.337.417.417,0,0,0-.349-.135.506.506,0,0,0-.412.214,1.083,1.083,0,0,0-.213.535c-.18,1.37-.275,2.113-.285,2.234h-1.012l.413-3.53a2.073,2.073,0,0,1,.479-.083q.5,0,.525.367a1.217,1.217,0,0,1,.88-.36,1.186,1.186,0,0,1,.806.255.818.818,0,0,1,.292.645,3.1,3.1,0,0,1-.045.4q-.172,1.139-.173,1.327,0,.344.233.344.509,0,.772-1.064a1.36,1.36,0,0,1,.307.428q-.4,1.318-1.379,1.318a.826.826,0,0,1-.69-.285A.959.959,0,0,1-2254.561,2434.5Z" transform="translate(2273.039 -2429.631)"/><path class="c" d="M-2249.78,2429.374q0,.045-.2,1.61h1.1v.577h-1.177l-.023.188a2.1,2.1,0,0,1,.877,1.6,1.232,1.232,0,0,1-.349.981,1.239,1.239,0,0,1-.836.3.9.9,0,0,1-.712-.258.921.921,0,0,1-.224-.626,1.211,1.211,0,0,1,.014-.179l.233-1.993-.03-.016h-.607c0-.049-.007-.131-.007-.243a.884.884,0,0,1,.068-.334h.645l.24-2.038a1.217,1.217,0,0,1,.42-.059C-2249.97,2428.887-2249.78,2429.048-2249.78,2429.374Zm.075,3.971a1.531,1.531,0,0,0-.449-1.018c-.09.743-.135,1.173-.135,1.288,0,.225.073.337.217.337a.312.312,0,0,0,.262-.146A.8.8,0,0,0-2249.7,2433.345Z" transform="translate(2271.706 -2428.879)"/><path class="c" d="M-2244.544,2431.815q-.307,2.427-.307,2.584,0,.3.218.3a.615.615,0,0,0,.424-.267,1.963,1.963,0,0,0,.363-.8,1.438,1.438,0,0,1,.3.42,1.8,1.8,0,0,1-.547,1.026,1.225,1.225,0,0,1-.772.3.868.868,0,0,1-.877-.5,1.251,1.251,0,0,1-1.041.5,1.182,1.182,0,0,1-.832-.27.915.915,0,0,1-.293-.705,3.054,3.054,0,0,1,.037-.366q.172-1.395.263-2.218a1.279,1.279,0,0,1,.427-.083,2.068,2.068,0,0,1,.292.015.324.324,0,0,1,.187.113.4.4,0,0,1,.09.277l-.247,1.911a1.06,1.06,0,0,0-.015.165q0,.442.4.443a.729.729,0,0,0,.622-.368c0-.054,0-.142.015-.263l.247-1.993a.441.441,0,0,1,.225-.213.964.964,0,0,1,.431-.087A.766.766,0,0,1-2244.544,2431.815Z" transform="translate(2270.697 -2429.634)"/><path class="c" d="M-2240.441,2432.721q0-.329-.3-.329c-.2,0-.363.129-.483.389a1.82,1.82,0,0,1,.81,1.431,1.139,1.139,0,0,1-.323.876,1.142,1.142,0,0,1-.809.3.83.83,0,0,1-.712-.3,1.255,1.255,0,0,1-.225-.768c0-.095,0-.165.007-.21l.262-2.285a1.856,1.856,0,0,1,.547-.083c.3,0,.458.113.458.338v.015a.958.958,0,0,1,.764-.353.811.811,0,0,1,.524.154.5.5,0,0,1,.187.409.518.518,0,0,1-.191.416.742.742,0,0,1-.5.162h-.03A.837.837,0,0,0-2240.441,2432.721Zm-.914.584q-.136,1.081-.136,1.087c0,.21.085.314.255.314q.33,0,.329-.531A1.239,1.239,0,0,0-2241.355,2433.305Z" transform="translate(2269.261 -2429.634)"/><path class="c" d="M-2236.444,2433.291a.859.859,0,0,0,.229-.536.4.4,0,0,0-.138-.353.536.536,0,0,0-.3-.094.751.751,0,0,0-.618.394,1.633,1.633,0,0,0-.266.937,1.12,1.12,0,0,0,.259.81.855.855,0,0,0,.64.265,1.773,1.773,0,0,0,1.08-.389,2.92,2.92,0,0,0,.839-1.02,1.743,1.743,0,0,1,.3.39,3.166,3.166,0,0,1-.877,1.1,2.573,2.573,0,0,1-.745.427,2.441,2.441,0,0,1-.888.166,1.555,1.555,0,0,1-1.184-.457,1.774,1.774,0,0,1-.465-1.266,1.845,1.845,0,0,1,.581-1.349,1.907,1.907,0,0,1,1.39-.577,1.608,1.608,0,0,1,.937.251.811.811,0,0,1,.368.679,1.131,1.131,0,0,1-.461.936,2.831,2.831,0,0,1-1.263.5l-.1-.442A1.173,1.173,0,0,0-2236.444,2433.291Z" transform="translate(2268.228 -2429.634)"/></g><g transform="translate(28.459 53.503)"><path class="c" d="M-2262.443,2441.843a1.71,1.71,0,0,1-.341.107c-.158.046-.24.072-.242.075v-.481a3.1,3.1,0,0,0,.408-.179,1.052,1.052,0,0,0,.324-.235h.5v3.779h-.648Z" transform="translate(2263.026 -2441.087)"/><path class="c" d="M-2259.238,2444.7a1.041,1.041,0,0,1-.235-.717v-.056h.621a.806.806,0,0,0,.068.387.277.277,0,0,0,.263.117.258.258,0,0,0,.254-.176,1.757,1.757,0,0,0,.072-.6v-.448a.422.422,0,0,1-.2.173.779.779,0,0,1-.322.06q-.791,0-.792-1.11a1.584,1.584,0,0,1,.235-.927.853.853,0,0,1,.748-.333.865.865,0,0,1,.747.329,1.469,1.469,0,0,1,.243.888v1.339a1.809,1.809,0,0,1-.221.966.84.84,0,0,1-.769.35A.938.938,0,0,1-2259.238,2444.7Zm1.043-1.957v-.588a1.069,1.069,0,0,0-.072-.434.262.262,0,0,0-.26-.16.259.259,0,0,0-.258.171,1.3,1.3,0,0,0-.073.5,3.506,3.506,0,0,0,.017.4.435.435,0,0,0,.088.231.283.283,0,0,0,.231.088A.361.361,0,0,0-2258.2,2442.747Z" transform="translate(2262.095 -2441.072)"/><path class="c" d="M-2255.358,2444.677a1.451,1.451,0,0,1-.207-.852h.63a1.282,1.282,0,0,0,.071.485.27.27,0,0,0,.275.163.268.268,0,0,0,.228-.1.56.56,0,0,0,.1-.271,3.9,3.9,0,0,0,.021-.474,1.593,1.593,0,0,0-.07-.551.28.28,0,0,0-.29-.177.3.3,0,0,0-.221.089.52.52,0,0,0-.133.242h-.555l.038-2.1h1.7v.579h-1.157l-.037.909a.539.539,0,0,1,.229-.143.965.965,0,0,1,.326-.053.653.653,0,0,1,.595.306,1.6,1.6,0,0,1,.194.86,2.858,2.858,0,0,1-.081.733.879.879,0,0,1-.3.47.937.937,0,0,1-.607.174A.861.861,0,0,1-2255.358,2444.677Z" transform="translate(2261.051 -2441.087)"/><path class="c" d="M-2250.736,2441.625h-1.022v-.5h1.656v.392l-.764,3.387h-.625Z" transform="translate(2260.043 -2441.087)"/></g><g transform="translate(0 0)"><path class="c" d="M-2238.975,2396.771v-10.325a3.717,3.717,0,0,0-1.73-2.98l-25.844-14.748h0a3.548,3.548,0,0,0-1.725-.413,3.546,3.546,0,0,0-1.728.414l-25.8,14.747a3.72,3.72,0,0,0-1.73,2.981v10.325h-4.2v14.2l4.2,3.755v1.834a3.722,3.722,0,0,0,1.73,2.979l25.845,14.748a3.533,3.533,0,0,0,1.725.412,3.522,3.522,0,0,0,1.726-.413l25.8-14.746a3.719,3.719,0,0,0,1.729-2.98v-1.7l4.352-3.889h.012v-14.2Zm-57.583-10.325a2.818,2.818,0,0,1,1.24-2.138l25.8-14.744a2.565,2.565,0,0,1,1.245-.288,2.59,2.59,0,0,1,1.243.286l25.844,14.748a2.815,2.815,0,0,1,1.242,2.137v10.325H-2242V2387.9a3.174,3.174,0,0,0-1.465-2.522l-23.35-13.325a2.988,2.988,0,0,0-1.46-.347,2.976,2.976,0,0,0-1.464.349l-23.308,13.323a3.183,3.183,0,0,0-1.465,2.523v8.873h-2.049Zm52.973,10.325-8.4-10.476-3.474,6.154,3.939-.693-3.3,5.015h-13.038l13.745-9.473-7.568-9.714-4.417,7.328,5.591-1.106-8.244,8.608,6.325-1.764-5.65,6.12h-10.317l13.947-16.853-9.542,9.609-1.175-1.608-2.813,3.759,3.147-.434-3.609,5.527h-6.29l7.37-7.555-6.412,4.648-2.247-1.174.657,4.081h-4.66l3.251-3.71-6.516,3.71h-.742V2387.9a2.727,2.727,0,0,1,1.22-2.1l23.309-13.322a2.519,2.519,0,0,1,1.223-.285,2.511,2.511,0,0,1,1.219.285l.122-.211-.121.211,23.351,13.323a2.725,2.725,0,0,1,1.22,2.1v8.873Zm-57.178.97h65.182V2410h-65.182Zm6.74,13.23h51.543v4.136a2.72,2.72,0,0,1-1.22,2.1l-23.309,13.324a2.56,2.56,0,0,1-1.221.282,2.554,2.554,0,0,1-1.221-.281l-23.35-13.327a2.719,2.719,0,0,1-1.221-2.1Zm52.837,7.725-25.8,14.747a2.611,2.611,0,0,1-1.244.285,2.613,2.613,0,0,1-1.244-.285l-25.844-14.748a2.814,2.814,0,0,1-1.241-2.136v-5.589h2.049v4.136a3.181,3.181,0,0,0,1.465,2.522l23.352,13.325a3.021,3.021,0,0,0,1.461.345,3.037,3.037,0,0,0,1.462-.345l23.308-13.323a3.179,3.179,0,0,0,1.465-2.523v-4.136h2.051v5.589A2.817,2.817,0,0,1-2241.186,2418.7Z" transform="translate(2301.732 -2368.305)"/></g></g></g><g transform="translate(407.165 -3178.852)"><g transform="translate(420.835 3185.908)"><g transform="translate(0)"><g transform="translate(54.78 11.995)"><path class="c" d="M-2451.521,2421.1s-.144,1.119,2.668,2.718,5.926,3.223,8.972,5.191c1.435.887,3.488,2.377,8.216,1.49s11.335-1.423,26.119-14.231c1.092-.957,2.274-2.008,2-2.381s-.691-.011-1.6.745-12.808,9.091-19.07,11.465c-1.693.654-2.873.842-3.068-.216a3.076,3.076,0,0,1,1.859-2.925c1.186-.589,9.115-4.343,15.057-17.073.871-2.07,1.56-6.287.792-6.631,0,0-.292-.209-.526.8a21.657,21.657,0,0,1-1.991,5.995c-1.205,2.013-7.032,12.184-14.018,13.833-1.068.076-2.283,0-2.991-2.2s-1.454-4.267-2.062-6.273a17.694,17.694,0,0,1,.6-9.252,22.3,22.3,0,0,0,1.357-5.756c.257-1.291.511-2.075.358-2.16s-.208.029-.325.345-.982,2.676-1.635,4.005-3.087,5.431-3.182,10.062,3.005,8.947,3.212,12.312-.732,6.123-3.427,6.108a7.8,7.8,0,0,1-5.215-1.685c-.583-.64-.277-1.225.314-1.346s2.673-.664,2.673-.664.678-.107.629-.618a5.553,5.553,0,0,0-.16-.9s.039-.412-.907-.108a14.133,14.133,0,0,1-2.387.53,16.977,16.977,0,0,1-2.559.332,12.189,12.189,0,0,1-4.063-1.454c-1.563-.882-3.527-1.992-4.055-2.8s-1.5-1.321-1.591-.575S-2451.521,2421.1-2451.521,2421.1Z" transform="translate(2451.564 -2394.216)"/></g><g transform="translate(0 11.995)"><path class="c" d="M-2478.052,2421.1s.144,1.119-2.669,2.718-5.925,3.223-8.971,5.191c-1.434.887-3.487,2.377-8.216,1.49s-11.335-1.423-26.118-14.231c-1.093-.957-2.276-2.008-2-2.381s.689-.011,1.6.745,12.807,9.091,19.07,11.465c1.692.654,2.874.842,3.067-.216a3.077,3.077,0,0,0-1.858-2.925c-1.187-.589-9.116-4.343-15.058-17.073-.871-2.07-1.56-6.287-.792-6.631,0,0,.293-.209.528.8a21.662,21.662,0,0,0,1.989,5.995c1.207,2.013,7.034,12.184,14.019,13.833,1.069.076,2.284,0,2.992-2.2s1.453-4.267,2.063-6.273a17.7,17.7,0,0,0-.6-9.252,22.272,22.272,0,0,1-1.355-5.756c-.257-1.291-.514-2.075-.36-2.16s.208.029.327.345.981,2.676,1.633,4.005,3.088,5.431,3.183,10.062-3,8.947-3.212,12.312.732,6.123,3.427,6.108a7.8,7.8,0,0,0,5.214-1.685c.584-.64.277-1.225-.313-1.346s-2.674-.664-2.674-.664-.679-.107-.631-.618a5.582,5.582,0,0,1,.16-.9s-.039-.412.908-.108a14.149,14.149,0,0,0,2.387.53,16.985,16.985,0,0,0,2.558.332,12.189,12.189,0,0,0,4.064-1.454c1.563-.882,3.526-1.992,4.055-2.8s1.495-1.321,1.591-.575S-2478.052,2421.1-2478.052,2421.1Z" transform="translate(2526.068 -2394.216)"/></g><g transform="translate(34.567 13.049)"><path class="c" d="M-2478.3,2407.034a5.339,5.339,0,0,1-.758-3.1v-4.083a5.27,5.27,0,0,1,.78-3.143,3.127,3.127,0,0,1,2.687-1.059,3.273,3.273,0,0,1,2.581.894,3.928,3.928,0,0,1,.78,2.649v.629h-2.116v-.689a5.317,5.317,0,0,0-.082-1.051,1.006,1.006,0,0,0-.346-.6,1.244,1.244,0,0,0-.787-.21,1.123,1.123,0,0,0-.825.271,1.3,1.3,0,0,0-.353.691,5.829,5.829,0,0,0-.083,1.094v5.089a3.338,3.338,0,0,0,.278,1.546,1.078,1.078,0,0,0,1.043.509,1.082,1.082,0,0,0,1.043-.54,3.51,3.51,0,0,0,.293-1.621v-1.14h-1.306v-1.4h3.3v6.168h-1.442l-.149-1.185a2.06,2.06,0,0,1-2.056,1.351A2.828,2.828,0,0,1-2478.3,2407.034Z" transform="translate(2479.055 -2395.65)"/><path class="c" d="M-2463.743,2395.834h2.371l2.432,12.157H-2461l-.481-2.806h-2.116l-.495,2.806h-2.087Zm2.025,7.94-.825-5.1-.825,5.1Z" transform="translate(2475.645 -2395.699)"/><path class="c" d="M-2452.29,2397.471h-2.026v-1.637h6.228v1.637h-2v10.52h-2.207Z" transform="translate(2472.506 -2395.699)"/><path class="c" d="M-2441.992,2407.177a4.377,4.377,0,0,1-.893-2.776l1.906-.375a4.2,4.2,0,0,0,.368,1.764,1.071,1.071,0,0,0,1.012.607.918.918,0,0,0,.758-.307,1.29,1.29,0,0,0,.248-.833,2.179,2.179,0,0,0-.323-1.217,5.85,5.85,0,0,0-1.013-1.11l-1.531-1.336a4.757,4.757,0,0,1-1.058-1.3,3.489,3.489,0,0,1-.353-1.645,2.881,2.881,0,0,1,.841-2.221,3.288,3.288,0,0,1,2.327-.781,2.627,2.627,0,0,1,2.236.894,4.438,4.438,0,0,1,.78,2.409l-1.906.329a4.487,4.487,0,0,0-.262-1.486.834.834,0,0,0-.848-.51,1.037,1.037,0,0,0-.8.315,1.162,1.162,0,0,0-.293.826,1.822,1.822,0,0,0,.24.975,4.2,4.2,0,0,0,.75.856l1.516,1.335a6.662,6.662,0,0,1,1.336,1.591,3.782,3.782,0,0,1,.48,1.936,3.075,3.075,0,0,1-.383,1.546,2.724,2.724,0,0,1-1.072,1.058,3.227,3.227,0,0,1-1.593.383A3.109,3.109,0,0,1-2441.992,2407.177Z" transform="translate(2469.479 -2395.65)"/></g><g transform="translate(46.535 29.538)"><path class="c" d="M-2462.778,2418.1h.965v2.406h-.46v-2h-.5Z" transform="translate(2462.778 -2418.083)"/><path class="c" d="M-2459.845,2420.1a.976.976,0,0,0,.275.04.569.569,0,0,0,.484-.214.932.932,0,0,0,.155-.59.616.616,0,0,1-.254.237.818.818,0,0,1-.379.083.749.749,0,0,1-.559-.209.77.77,0,0,1-.206-.564.854.854,0,0,1,.1-.429.722.722,0,0,1,.3-.282.973.973,0,0,1,.451-.1.962.962,0,0,1,.527.141.9.9,0,0,1,.34.4,1.534,1.534,0,0,1,.119.629,1.638,1.638,0,0,1-.129.67,1.011,1.011,0,0,1-.366.445.979.979,0,0,1-.553.156,1.477,1.477,0,0,1-.38-.052,1.438,1.438,0,0,1-.348-.137l.179-.34A.88.88,0,0,0-2459.845,2420.1Zm.062-1.527a.4.4,0,0,0-.124.313.4.4,0,0,0,.116.3.451.451,0,0,0,.32.11.477.477,0,0,0,.347-.122.4.4,0,0,0,.124-.3.4.4,0,0,0-.116-.288.45.45,0,0,0-.341-.124A.459.459,0,0,0-2459.784,2418.577Z" transform="translate(2462.13 -2418.076)"/><path class="c" d="M-2455.386,2418.246a.556.556,0,0,1,.218.462.525.525,0,0,1-.089.3.6.6,0,0,1-.247.209.738.738,0,0,1,.335.24.61.61,0,0,1,.121.371.615.615,0,0,1-.113.368.709.709,0,0,1-.325.242,1.332,1.332,0,0,1-.493.084,1.335,1.335,0,0,1-.493-.084.731.731,0,0,1-.324-.238.6.6,0,0,1-.113-.364.594.594,0,0,1,.127-.377.752.752,0,0,1,.351-.242.667.667,0,0,1-.263-.22.532.532,0,0,1-.095-.306.532.532,0,0,1,.219-.448.945.945,0,0,1,.59-.167A.944.944,0,0,1-2455.386,2418.246Zm-.961,1.266a.318.318,0,0,0-.13.271.333.333,0,0,0,.13.279.6.6,0,0,0,.368.1.6.6,0,0,0,.366-.1.324.324,0,0,0,.132-.277.32.32,0,0,0-.132-.273.609.609,0,0,0-.369-.1A.6.6,0,0,0-2456.347,2419.512Zm.058-1.021a.285.285,0,0,0-.112.241.283.283,0,0,0,.112.24.493.493,0,0,0,.31.086.491.491,0,0,0,.31-.086.286.286,0,0,0,.109-.24.288.288,0,0,0-.109-.241.493.493,0,0,0-.31-.086A.5.5,0,0,0-2456.289,2418.491Z" transform="translate(2461.225 -2418.076)"/><path class="c" d="M-2453.653,2418.1h1.856v.344l-.991,2.062h-.487l.959-2h-.924l0,.341h-.409Z" transform="translate(2460.362 -2418.083)"/></g><g transform="translate(39.492 48.784)"><path class="c" d="M-2469.986,2444.54a.729.729,0,0,1,.314.623.764.764,0,0,1-.158.484.763.763,0,0,1-.436.27.879.879,0,0,1,.533.292.856.856,0,0,1,.193.569.81.81,0,0,1-.338.688,1.522,1.522,0,0,1-.922.25h-1.556v-3.4h1.512A1.431,1.431,0,0,1-2469.986,2444.54Zm-.5,1.051a.372.372,0,0,0,.143-.312.355.355,0,0,0-.143-.3.64.64,0,0,0-.4-.1h-.826v.827h.826A.633.633,0,0,0-2470.482,2445.59Zm.089,1.445a.392.392,0,0,0,.176-.341.378.378,0,0,0-.176-.329.835.835,0,0,0-.486-.113h-.826v.9h.826A.816.816,0,0,0-2470.393,2447.035Z" transform="translate(2472.357 -2444.267)"/><path class="c" d="M-2464.639,2447.715l-.3-.719h-1.663l-.3.719h-.677l1.493-3.4h.677l1.473,3.4Zm-1.731-1.279h1.2l-.593-1.429Z" transform="translate(2471.093 -2444.267)"/><path class="c" d="M-2459.272,2447.715l-.589-1.006a1.136,1.136,0,0,1-.121.005h-.769v1h-.651v-3.4h1.42a1.529,1.529,0,0,1,1.021.307,1.073,1.073,0,0,1,.36.865,1.277,1.277,0,0,1-.173.682,1.045,1.045,0,0,1-.5.422l.749,1.128Zm-1.479-1.575h.769a.865.865,0,0,0,.564-.161.579.579,0,0,0,.194-.477.56.56,0,0,0-.194-.467.882.882,0,0,0-.564-.155h-.769Z" transform="translate(2469.457 -2444.267)"/><path class="c" d="M-2453.829,2447.715l-.588-1.006a1.14,1.14,0,0,1-.121.005h-.768v1h-.652v-3.4h1.42a1.532,1.532,0,0,1,1.022.307,1.079,1.079,0,0,1,.36.865,1.283,1.283,0,0,1-.173.682,1.053,1.053,0,0,1-.5.422l.748,1.128Zm-1.478-1.575h.768a.87.87,0,0,0,.565-.161.581.581,0,0,0,.194-.477.563.563,0,0,0-.194-.467.887.887,0,0,0-.565-.155h-.768Z" transform="translate(2468.016 -2444.267)"/><path class="c" d="M-2448.143,2444.48a1.7,1.7,0,0,1,.654.627,1.693,1.693,0,0,1,.239.885,1.706,1.706,0,0,1-.239.887,1.733,1.733,0,0,1-.654.635,1.846,1.846,0,0,1-.921.234,1.841,1.841,0,0,1-.921-.234,1.737,1.737,0,0,1-.654-.635,1.7,1.7,0,0,1-.238-.887,1.686,1.686,0,0,1,.238-.885,1.7,1.7,0,0,1,.654-.627,1.869,1.869,0,0,1,.921-.229A1.874,1.874,0,0,1-2448.143,2444.48Zm-1.49.508a1.147,1.147,0,0,0-.423.417,1.14,1.14,0,0,0-.155.587,1.136,1.136,0,0,0,.157.588,1.182,1.182,0,0,0,.423.424,1.122,1.122,0,0,0,.576.155,1.1,1.1,0,0,0,.57-.155,1.158,1.158,0,0,0,.416-.424,1.164,1.164,0,0,0,.153-.588,1.153,1.153,0,0,0-.153-.587,1.138,1.138,0,0,0-.416-.417,1.106,1.106,0,0,0-.57-.154A1.138,1.138,0,0,0-2449.633,2444.989Z" transform="translate(2466.671 -2444.251)"/><path class="c" d="M-2442.128,2444.31h.633v3.4h-.618l-1.751-2.343v2.343h-.637v-3.4h.617l1.756,2.35Z" transform="translate(2464.983 -2444.267)"/></g><g transform="translate(28.843)"><path class="c" d="M-2486.84,2387.894l1.777-1.318.315.434-1.28.949.516.695,1.166-.865.319.431-1.166.864.756,1.019-.492.365Z" transform="translate(2486.84 -2380.198)"/><path class="c" d="M-2480.761,2384.225a1.6,1.6,0,0,1,.83.2,1.608,1.608,0,0,1,.614.607,1.6,1.6,0,0,1,.227.836,1.63,1.63,0,0,1-.231.826,1.732,1.732,0,0,1-.64.626,1.737,1.737,0,0,1-.86.248,1.631,1.631,0,0,1-.835-.207,1.609,1.609,0,0,1-.615-.609,1.593,1.593,0,0,1-.226-.833,1.616,1.616,0,0,1,.235-.821,1.788,1.788,0,0,1,.642-.623A1.76,1.76,0,0,1-2480.761,2384.225Zm-.972,1.12a1.085,1.085,0,0,0-.146.541,1.063,1.063,0,0,0,.152.55,1.064,1.064,0,0,0,.407.4,1.109,1.109,0,0,0,.545.144,1.061,1.061,0,0,0,.543-.147,1.025,1.025,0,0,0,.39-.4,1.081,1.081,0,0,0,.137-.542,1.1,1.1,0,0,0-.154-.551,1.082,1.082,0,0,0-.4-.4,1.063,1.063,0,0,0-.537-.143,1.051,1.051,0,0,0-.535.145A1.077,1.077,0,0,0-2481.733,2385.345Z" transform="translate(2485.69 -2379.576)"/><path class="c" d="M-2475.389,2381.645a1.6,1.6,0,0,1,.8.3,1.593,1.593,0,0,1,.534.678,1.59,1.59,0,0,1,.122.857,1.639,1.639,0,0,1-.332.792,1.742,1.742,0,0,1-.711.542,1.742,1.742,0,0,1-.885.14,1.631,1.631,0,0,1-.8-.309,1.6,1.6,0,0,1-.534-.679,1.589,1.589,0,0,1-.122-.855,1.615,1.615,0,0,1,.335-.786,1.772,1.772,0,0,1,.713-.538A1.778,1.778,0,0,1-2475.389,2381.645Zm-1.1.992a1.078,1.078,0,0,0-.211.519,1.067,1.067,0,0,0,.082.566,1.059,1.059,0,0,0,.354.451,1.108,1.108,0,0,0,.524.21,1.049,1.049,0,0,0,.556-.079,1.012,1.012,0,0,0,.435-.345,1.079,1.079,0,0,0,.2-.521,1.1,1.1,0,0,0-.085-.567,1.091,1.091,0,0,0-.35-.451,1.07,1.07,0,0,0-.515-.208,1.057,1.057,0,0,0-.55.077A1.1,1.1,0,0,0-2476.492,2382.637Z" transform="translate(2484.323 -2378.891)"/><path class="c" d="M-2469.766,2379.8a1.485,1.485,0,0,1,.729.385,1.625,1.625,0,0,1,.436.738,1.593,1.593,0,0,1,.018.854,1.523,1.523,0,0,1-.422.716,1.83,1.83,0,0,1-.784.439l-1.259.361-.883-3.083,1.281-.367A1.79,1.79,0,0,1-2469.766,2379.8Zm.335,2.325a.958.958,0,0,0,.25-.461,1.111,1.111,0,0,0-.023-.563,1.1,1.1,0,0,0-.284-.493.972.972,0,0,0-.468-.261,1.084,1.084,0,0,0-.555.019l-.682.2.585,2.042.705-.2A1.058,1.058,0,0,0-2469.43,2382.127Z" transform="translate(2482.893 -2378.396)"/><path class="c" d="M-2461.9,2378.786a1.073,1.073,0,0,0-.479-.056,1.071,1.071,0,0,0-.525.2,1.028,1.028,0,0,0-.343.434,1.08,1.08,0,0,0-.078.559,1.081,1.081,0,0,0,.2.527,1.036,1.036,0,0,0,.432.347,1.048,1.048,0,0,0,.558.081,1.118,1.118,0,0,0,.446-.152,1.328,1.328,0,0,0,.376-.324l.405.359a1.882,1.882,0,0,1-.537.47,1.66,1.66,0,0,1-.656.226,1.693,1.693,0,0,1-.868-.122,1.612,1.612,0,0,1-.669-.524,1.64,1.64,0,0,1-.314-.806,1.59,1.59,0,0,1,.128-.854,1.63,1.63,0,0,1,.54-.656,1.732,1.732,0,0,1,.829-.311,1.706,1.706,0,0,1,.684.059,1.652,1.652,0,0,1,.6.313l-.3.486A1.2,1.2,0,0,0-2461.9,2378.786Z" transform="translate(2480.783 -2377.974)"/><path class="c" d="M-2456.258,2378.119a1.609,1.609,0,0,1,.615.592,1.607,1.607,0,0,1,.223.835,1.605,1.605,0,0,1-.227.835,1.637,1.637,0,0,1-.617.6,1.747,1.747,0,0,1-.869.218,1.743,1.743,0,0,1-.867-.221,1.642,1.642,0,0,1-.615-.6,1.61,1.61,0,0,1-.223-.837,1.6,1.6,0,0,1,.226-.833,1.614,1.614,0,0,1,.618-.59,1.763,1.763,0,0,1,.868-.212A1.765,1.765,0,0,1-2456.258,2378.119Zm-1.405.476a1.07,1.07,0,0,0-.4.393,1.069,1.069,0,0,0-.148.551,1.07,1.07,0,0,0,.148.555,1.1,1.1,0,0,0,.4.4,1.043,1.043,0,0,0,.542.148,1.033,1.033,0,0,0,.537-.145,1.078,1.078,0,0,0,.392-.4,1.093,1.093,0,0,0,.146-.554,1.085,1.085,0,0,0-.143-.552,1.063,1.063,0,0,0-.391-.394,1.043,1.043,0,0,0-.535-.146A1.08,1.08,0,0,0-2457.663,2378.595Z" transform="translate(2479.427 -2377.902)"/><path class="c" d="M-2452.391,2378.087l.694.095.774,2.19,1.322-1.9.695.095-.434,3.177-.558-.076.312-2.278-1.256,1.816-.391-.054-.727-2.087-.311,2.279-.553-.076Z" transform="translate(2477.835 -2377.951)"/><path class="c" d="M-2443.5,2380.092a1.023,1.023,0,0,1,.109.874,1.1,1.1,0,0,1-.542.739,1.333,1.333,0,0,1-.983.052l-.677-.182-.245.912-.593-.16.833-3.1,1.27.341A1.384,1.384,0,0,1-2443.5,2380.092Zm-.753,1.126a.545.545,0,0,0,.3-.385.529.529,0,0,0-.065-.473.849.849,0,0,0-.477-.28l-.646-.174-.308,1.146.646.174A.835.835,0,0,0-2444.255,2381.218Z" transform="translate(2476.143 -2378.253)"/><path class="c" d="M-2439.99,2384.591l-.019-.735-1.461-.566-.509.53-.594-.23,2.47-2.483.594.231.135,3.491Zm-1.084-1.713,1.051.407-.035-1.458Z" transform="translate(2475.121 -2378.75)"/><path class="c" d="M-2433.69,2383.887l.525.28-1.512,2.828-.513-.274-.413-2.724-1.041,1.946-.529-.282,1.512-2.829.513.274.415,2.731Z" transform="translate(2473.691 -2379.207)"/><path class="c" d="M-2428.164,2387.2l-2.189,1.109-.6.862-.505-.348.584-.845.257-2.473.512.354-.137,1.737,1.565-.75Z" transform="translate(2472.177 -2379.915)"/></g></g></g><g transform="translate(634.781 3178.852)"><g transform="translate(13.588 32.294)"><path class="c" d="M-2283.251,2412.329h1.6a3.065,3.065,0,0,1,1.289.222,1.306,1.306,0,0,1,.665.677,3.1,3.1,0,0,1,.2,1.208v2.467a3.308,3.308,0,0,1-.2,1.245,1.374,1.374,0,0,1-.656.716,2.731,2.731,0,0,1-1.246.238h-1.647Zm1.614,5.911a.98.98,0,0,0,.594-.141.639.639,0,0,0,.234-.4,4.2,4.2,0,0,0,.051-.757v-2.592a3.063,3.063,0,0,0-.058-.687.538.538,0,0,0-.247-.346,1.171,1.171,0,0,0-.59-.114h-.368v5.033Z" transform="translate(2283.251 -2412.254)"/><path class="c" d="M-2272.741,2412.329h1.32l1.355,6.773h-1.146l-.267-1.564h-1.18l-.275,1.564h-1.163Zm1.128,4.424-.459-2.844-.46,2.844Z" transform="translate(2280.828 -2412.254)"/><path class="c" d="M-2264.281,2412.329h1.229v2.977l1.346-2.977h1.178l-1.3,3.019,1.431,3.754h-1.229l-1.129-3.078-.3.511v2.567h-1.229Z" transform="translate(2278.229 -2412.254)"/><path class="c" d="M-2254.584,2418.6a2.591,2.591,0,0,1-.452-1.651v-2.542a2.526,2.526,0,0,1,.452-1.631,1.838,1.838,0,0,1,1.5-.552,1.829,1.829,0,0,1,1.5.552,2.531,2.531,0,0,1,.451,1.631v2.542a2.585,2.585,0,0,1-.456,1.648,1.8,1.8,0,0,1-1.493.568A1.816,1.816,0,0,1-2254.584,2418.6Zm2.056-.606a1.593,1.593,0,0,0,.142-.752v-3.119a1.589,1.589,0,0,0-.138-.744.577.577,0,0,0-.557-.251.582.582,0,0,0-.56.256,1.538,1.538,0,0,0-.142.74v3.119a1.587,1.587,0,0,0,.142.752.581.581,0,0,0,.56.26A.572.572,0,0,0-2252.527,2418Z" transform="translate(2275.781 -2412.227)"/><path class="c" d="M-2244.582,2413.241h-1.128v-.912h3.47v.912h-1.112v5.862h-1.229Z" transform="translate(2273.313 -2412.254)"/><path class="c" d="M-2236,2412.329h1.321l1.354,6.773h-1.146l-.268-1.564h-1.179l-.276,1.564h-1.163Zm1.129,4.424-.46-2.844-.46,2.844Z" transform="translate(2271.1 -2412.254)"/></g><g transform="translate(16.786 44.535)"><path class="c" d="M-2274.6,2434.6a.756.756,0,0,1-.634-.273,2.115,2.115,0,0,1-.288-1.024c-.03-.259-.06-.6-.09-1.011q-.525.158-1.056.33l-.254.7q-.076.2-.105.288c-.021.057-.057.144-.109.259a1.67,1.67,0,0,1-.135.251c-.037.051-.09.118-.157.2a.651.651,0,0,1-.206.173,1.263,1.263,0,0,1-.577.135.626.626,0,0,1-.5-.221.8.8,0,0,1-.19-.542,1.211,1.211,0,0,1,.015-.188q.1-.719,1.476-1.311.39-1,1.3-3.357a1.225,1.225,0,0,1,.607-.135h.341a1.124,1.124,0,0,1,.274.045q.006.352.344,4.369a1.427,1.427,0,0,0,.083.438.187.187,0,0,0,.18.1,1.018,1.018,0,0,0,.558-.285,3.063,3.063,0,0,0,.626-.712l.209.509-.179.24A2.1,2.1,0,0,1-2274.6,2434.6Zm-3.77-.892c0,.16.06.24.179.24.091,0,.163-.064.218-.194s.165-.384.3-.734Q-2278.37,2433.373-2278.37,2433.709Zm2.578-3.53-.651,1.822q.524-.18.779-.263Z" transform="translate(2278.902 -2428.876)"/><path class="c" d="M-2268.545,2428.972a1.034,1.034,0,0,1,.442-.085.779.779,0,0,1,.386.074q-.075.584-.241,1.835-.344,2.615-.344,2.882t.225.267a.571.571,0,0,0,.4-.243,2.326,2.326,0,0,0,.382-.8,1.111,1.111,0,0,1,.292.442,1.713,1.713,0,0,1-.847,1.155,1.136,1.136,0,0,1-.494.127.886.886,0,0,1-.892-.479,1.222,1.222,0,0,1-1,.487,1.4,1.4,0,0,1-1.023-.412,1.463,1.463,0,0,1-.415-1.087,2.132,2.132,0,0,1,.576-1.566,1.966,1.966,0,0,1,1.462-.585h.045a1.828,1.828,0,0,1,.577.09l.224-1.887A.441.441,0,0,1-2268.545,2428.972Zm-.971,2.6a.908.908,0,0,0-.76.363,1.978,1.978,0,0,0-.334,1.083,1.066,1.066,0,0,0-.008.127.9.9,0,0,0,.176.584.557.557,0,0,0,.453.218q.473,0,.713-.667l.195-1.61A1.2,1.2,0,0,0-2269.516,2431.569Z" transform="translate(2276.986 -2428.879)"/><path class="c" d="M-2263.221,2433.949a2.518,2.518,0,0,1-.675.993,1.47,1.47,0,0,1-1,.386.991.991,0,0,1-.843-.371,1.37,1.37,0,0,1-.282-.851c0-.065,0-.129.008-.194l.255-2.137a1.445,1.445,0,0,1,.51-.09c.329,0,.495.123.495.368q0,.015-.124,1c-.082.656-.124,1.038-.124,1.143a.371.371,0,0,0,.413.426.691.691,0,0,0,.592-.4,3.346,3.346,0,0,0,.442-1.627h-.067a.711.711,0,0,1-.479-.142.508.508,0,0,1-.188-.4.506.506,0,0,1,.143-.375.608.608,0,0,1,.412-.149.68.68,0,0,1,.712.592,2.1,2.1,0,0,0,.322-.06v.427l-.277.045v.127A3.621,3.621,0,0,1-2263.221,2433.949Zm-.641-1.889c0,.085.073.127.218.127h.044c-.034-.135-.087-.2-.156-.2S-2263.862,2432.011-2263.862,2432.06Z" transform="translate(2275.492 -2429.58)"/><path class="c" d="M-2259.355,2433.291a.858.858,0,0,0,.229-.536.4.4,0,0,0-.139-.353.534.534,0,0,0-.3-.094.752.752,0,0,0-.618.394,1.632,1.632,0,0,0-.265.937,1.121,1.121,0,0,0,.258.81.86.86,0,0,0,.641.265,1.77,1.77,0,0,0,1.079-.389,2.925,2.925,0,0,0,.839-1.02,1.766,1.766,0,0,1,.3.39,3.194,3.194,0,0,1-.877,1.1,2.574,2.574,0,0,1-.745.427,2.445,2.445,0,0,1-.888.166,1.553,1.553,0,0,1-1.184-.457,1.773,1.773,0,0,1-.465-1.266,1.842,1.842,0,0,1,.581-1.349,1.906,1.906,0,0,1,1.39-.577,1.607,1.607,0,0,1,.937.251.809.809,0,0,1,.367.679,1.134,1.134,0,0,1-.46.936,2.832,2.832,0,0,1-1.263.5l-.1-.442A1.171,1.171,0,0,0-2259.355,2433.291Z" transform="translate(2274.294 -2429.634)"/><path class="c" d="M-2254.561,2434.5l.18-1.671a.531.531,0,0,0-.1-.337.417.417,0,0,0-.349-.135.506.506,0,0,0-.412.214,1.083,1.083,0,0,0-.213.535c-.18,1.37-.275,2.113-.285,2.234h-1.012l.413-3.53a2.073,2.073,0,0,1,.479-.083q.5,0,.525.367a1.217,1.217,0,0,1,.88-.36,1.186,1.186,0,0,1,.806.255.818.818,0,0,1,.292.645,3.1,3.1,0,0,1-.045.4q-.172,1.139-.173,1.327,0,.344.233.344.509,0,.772-1.064a1.36,1.36,0,0,1,.307.428q-.4,1.318-1.379,1.318a.826.826,0,0,1-.69-.285A.959.959,0,0,1-2254.561,2434.5Z" transform="translate(2273.039 -2429.631)"/><path class="c" d="M-2249.78,2429.374q0,.045-.2,1.61h1.1v.577h-1.177l-.023.188a2.1,2.1,0,0,1,.877,1.6,1.232,1.232,0,0,1-.349.981,1.239,1.239,0,0,1-.836.3.9.9,0,0,1-.712-.258.921.921,0,0,1-.224-.626,1.211,1.211,0,0,1,.014-.179l.233-1.993-.03-.016h-.607c0-.049-.007-.131-.007-.243a.884.884,0,0,1,.068-.334h.645l.24-2.038a1.217,1.217,0,0,1,.42-.059C-2249.97,2428.887-2249.78,2429.048-2249.78,2429.374Zm.075,3.971a1.531,1.531,0,0,0-.449-1.018c-.09.743-.135,1.173-.135,1.288,0,.225.073.337.217.337a.312.312,0,0,0,.262-.146A.8.8,0,0,0-2249.7,2433.345Z" transform="translate(2271.706 -2428.879)"/><path class="c" d="M-2244.544,2431.815q-.307,2.427-.307,2.584,0,.3.218.3a.615.615,0,0,0,.424-.267,1.963,1.963,0,0,0,.363-.8,1.438,1.438,0,0,1,.3.42,1.8,1.8,0,0,1-.547,1.026,1.225,1.225,0,0,1-.772.3.868.868,0,0,1-.877-.5,1.251,1.251,0,0,1-1.041.5,1.182,1.182,0,0,1-.832-.27.915.915,0,0,1-.293-.705,3.054,3.054,0,0,1,.037-.366q.172-1.395.263-2.218a1.279,1.279,0,0,1,.427-.083,2.068,2.068,0,0,1,.292.015.324.324,0,0,1,.187.113.4.4,0,0,1,.09.277l-.247,1.911a1.06,1.06,0,0,0-.015.165q0,.442.4.443a.729.729,0,0,0,.622-.368c0-.054,0-.142.015-.263l.247-1.993a.441.441,0,0,1,.225-.213.964.964,0,0,1,.431-.087A.766.766,0,0,1-2244.544,2431.815Z" transform="translate(2270.697 -2429.634)"/><path class="c" d="M-2240.441,2432.721q0-.329-.3-.329c-.2,0-.363.129-.483.389a1.82,1.82,0,0,1,.81,1.431,1.139,1.139,0,0,1-.323.876,1.142,1.142,0,0,1-.809.3.83.83,0,0,1-.712-.3,1.255,1.255,0,0,1-.225-.768c0-.095,0-.165.007-.21l.262-2.285a1.856,1.856,0,0,1,.547-.083c.3,0,.458.113.458.338v.015a.958.958,0,0,1,.764-.353.811.811,0,0,1,.524.154.5.5,0,0,1,.187.409.518.518,0,0,1-.191.416.742.742,0,0,1-.5.162h-.03A.837.837,0,0,0-2240.441,2432.721Zm-.914.584q-.136,1.081-.136,1.087c0,.21.085.314.255.314q.33,0,.329-.531A1.239,1.239,0,0,0-2241.355,2433.305Z" transform="translate(2269.261 -2429.634)"/><path class="c" d="M-2236.444,2433.291a.859.859,0,0,0,.229-.536.4.4,0,0,0-.138-.353.536.536,0,0,0-.3-.094.751.751,0,0,0-.618.394,1.633,1.633,0,0,0-.266.937,1.12,1.12,0,0,0,.259.81.855.855,0,0,0,.64.265,1.773,1.773,0,0,0,1.08-.389,2.92,2.92,0,0,0,.839-1.02,1.743,1.743,0,0,1,.3.39,3.166,3.166,0,0,1-.877,1.1,2.573,2.573,0,0,1-.745.427,2.441,2.441,0,0,1-.888.166,1.555,1.555,0,0,1-1.184-.457,1.774,1.774,0,0,1-.465-1.266,1.845,1.845,0,0,1,.581-1.349,1.907,1.907,0,0,1,1.39-.577,1.608,1.608,0,0,1,.937.251.811.811,0,0,1,.368.679,1.131,1.131,0,0,1-.461.936,2.831,2.831,0,0,1-1.263.5l-.1-.442A1.173,1.173,0,0,0-2236.444,2433.291Z" transform="translate(2268.228 -2429.634)"/></g><g transform="translate(28.459 53.503)"><path class="c" d="M-2262.443,2441.843a1.71,1.71,0,0,1-.341.107c-.158.046-.24.072-.242.075v-.481a3.1,3.1,0,0,0,.408-.179,1.052,1.052,0,0,0,.324-.235h.5v3.779h-.648Z" transform="translate(2263.026 -2441.087)"/><path class="c" d="M-2259.238,2444.7a1.041,1.041,0,0,1-.235-.717v-.056h.621a.806.806,0,0,0,.068.387.277.277,0,0,0,.263.117.258.258,0,0,0,.254-.176,1.757,1.757,0,0,0,.072-.6v-.448a.422.422,0,0,1-.2.173.779.779,0,0,1-.322.06q-.791,0-.792-1.11a1.584,1.584,0,0,1,.235-.927.853.853,0,0,1,.748-.333.865.865,0,0,1,.747.329,1.469,1.469,0,0,1,.243.888v1.339a1.809,1.809,0,0,1-.221.966.84.84,0,0,1-.769.35A.938.938,0,0,1-2259.238,2444.7Zm1.043-1.957v-.588a1.069,1.069,0,0,0-.072-.434.262.262,0,0,0-.26-.16.259.259,0,0,0-.258.171,1.3,1.3,0,0,0-.073.5,3.506,3.506,0,0,0,.017.4.435.435,0,0,0,.088.231.283.283,0,0,0,.231.088A.361.361,0,0,0-2258.2,2442.747Z" transform="translate(2262.095 -2441.072)"/><path class="c" d="M-2255.358,2444.677a1.451,1.451,0,0,1-.207-.852h.63a1.282,1.282,0,0,0,.071.485.27.27,0,0,0,.275.163.268.268,0,0,0,.228-.1.56.56,0,0,0,.1-.271,3.9,3.9,0,0,0,.021-.474,1.593,1.593,0,0,0-.07-.551.28.28,0,0,0-.29-.177.3.3,0,0,0-.221.089.52.52,0,0,0-.133.242h-.555l.038-2.1h1.7v.579h-1.157l-.037.909a.539.539,0,0,1,.229-.143.965.965,0,0,1,.326-.053.653.653,0,0,1,.595.306,1.6,1.6,0,0,1,.194.86,2.858,2.858,0,0,1-.081.733.879.879,0,0,1-.3.47.937.937,0,0,1-.607.174A.861.861,0,0,1-2255.358,2444.677Z" transform="translate(2261.051 -2441.087)"/><path class="c" d="M-2250.736,2441.625h-1.022v-.5h1.656v.392l-.764,3.387h-.625Z" transform="translate(2260.043 -2441.087)"/></g><g transform="translate(0 0)"><path class="c" d="M-2238.975,2396.771v-10.325a3.717,3.717,0,0,0-1.73-2.98l-25.844-14.748h0a3.548,3.548,0,0,0-1.725-.413,3.546,3.546,0,0,0-1.728.414l-25.8,14.747a3.72,3.72,0,0,0-1.73,2.981v10.325h-4.2v14.2l4.2,3.755v1.834a3.722,3.722,0,0,0,1.73,2.979l25.845,14.748a3.533,3.533,0,0,0,1.725.412,3.522,3.522,0,0,0,1.726-.413l25.8-14.746a3.719,3.719,0,0,0,1.729-2.98v-1.7l4.352-3.889h.012v-14.2Zm-57.583-10.325a2.818,2.818,0,0,1,1.24-2.138l25.8-14.744a2.565,2.565,0,0,1,1.245-.288,2.59,2.59,0,0,1,1.243.286l25.844,14.748a2.815,2.815,0,0,1,1.242,2.137v10.325H-2242V2387.9a3.174,3.174,0,0,0-1.465-2.522l-23.35-13.325a2.988,2.988,0,0,0-1.46-.347,2.976,2.976,0,0,0-1.464.349l-23.308,13.323a3.183,3.183,0,0,0-1.465,2.523v8.873h-2.049Zm52.973,10.325-8.4-10.476-3.474,6.154,3.939-.693-3.3,5.015h-13.038l13.745-9.473-7.568-9.714-4.417,7.328,5.591-1.106-8.244,8.608,6.325-1.764-5.65,6.12h-10.317l13.947-16.853-9.542,9.609-1.175-1.608-2.813,3.759,3.147-.434-3.609,5.527h-6.29l7.37-7.555-6.412,4.648-2.247-1.174.657,4.081h-4.66l3.251-3.71-6.516,3.71h-.742V2387.9a2.727,2.727,0,0,1,1.22-2.1l23.309-13.322a2.519,2.519,0,0,1,1.223-.285,2.511,2.511,0,0,1,1.219.285l.122-.211-.121.211,23.351,13.323a2.725,2.725,0,0,1,1.22,2.1v8.873Zm-57.178.97h65.182V2410h-65.182Zm6.74,13.23h51.543v4.136a2.72,2.72,0,0,1-1.22,2.1l-23.309,13.324a2.56,2.56,0,0,1-1.221.282,2.554,2.554,0,0,1-1.221-.281l-23.35-13.327a2.719,2.719,0,0,1-1.221-2.1Zm52.837,7.725-25.8,14.747a2.611,2.611,0,0,1-1.244.285,2.613,2.613,0,0,1-1.244-.285l-25.844-14.748a2.814,2.814,0,0,1-1.241-2.136v-5.589h2.049v4.136a3.181,3.181,0,0,0,1.465,2.522l23.352,13.325a3.021,3.021,0,0,0,1.461.345,3.037,3.037,0,0,0,1.462-.345l23.308-13.323a3.179,3.179,0,0,0,1.465-2.523v-4.136h2.051v5.589A2.817,2.817,0,0,1-2241.186,2418.7Z" transform="translate(2301.732 -2368.305)"/></g></g></g></g></svg>