<svg xmlns="http://www.w3.org/2000/svg" width="1304.225" height="294.872" viewBox="0 0 1304.225 294.872"><defs><style>.a{opacity:0.4;}.b{fill:none;stroke:#e9e9e9;stroke-width:5px;stroke-dasharray:8;}.c{fill:#e9e9e9;}</style></defs><g class="a" transform="translate(1.061 -2913.363)"><path class="b" d="M-66.623,3263.491s65.143-72.63,178.167-76.5,98.683-69.772,202.6-66.016,108.585,97.2,178.358,93.333,93.333-89.577,249.61-21.284c38.643,16.887,79.128,17.6,118.412,20.36,35.087,2.466,69.233,6.614,99.768,25.913,64.284,40.629,123.034-19.546,123.034-19.546" transform="translate(67.423 -56.925)"/><path class="b" d="M-66.623,3263.491s65.143-72.63,178.167-76.5,98.683-69.772,202.6-66.016,108.585,97.2,178.358,93.333,93.333-89.577,249.61-21.284c92.984,40.634,173.8-3.565,217.93,56.568,61.333,25.733,95.862-1.767,91.276-3.1" transform="translate(71.623 -77.925)"/><g transform="translate(992.752 3056.851) rotate(-42)"><path class="c" d="M349.51,88a21.51,21.51,0,1,0,21.51,21.51A21.51,21.51,0,0,0,349.51,88Zm0,35.851a14.34,14.34,0,1,1,14.34-14.34A14.34,14.34,0,0,1,349.51,123.851Z" transform="translate(-171.077 -39.735)"/><path class="c" d="M235.957,251.614l4.2-4.2-5.07-5.07-4.2,4.2a53.153,53.153,0,0,0-10.417,14.716l6.471,3.089a46,46,0,0,1,9.017-12.734Z" transform="translate(-111.735 -124.911)"/><path class="c" d="M210.086,309.4l7.1,1.022a46.549,46.549,0,0,1,1.465-6.656l-6.87-2.052a53.682,53.682,0,0,0-1.691,7.685Z" transform="translate(-106.005 -157.674)"/><path class="c" d="M228.624,16h-12.11a69.1,69.1,0,0,0-49.182,20.372A145.445,145.445,0,0,0,148.86,59.021H136.282a40.043,40.043,0,0,0-28.5,11.805,3.585,3.585,0,0,0,0,5.07l14.34,14.34a3.585,3.585,0,0,0,2.535,1.05h8.189c-.192.548-.382,1.1-.567,1.648l-10.157,10.157A381.9,381.9,0,0,0,78.5,155.312a28.663,28.663,0,0,0-43.415,8.048A17.938,17.938,0,0,0,18,169.055l5.376,4.744a10.766,10.766,0,0,1,8.067-3.642c.3,0,.6.015.9.039a28.637,28.637,0,0,0-.9,7.131h7.17a21.5,21.5,0,0,1,35.826-16.046q-1.726,2.59-3.413,5.2l-.64.995a29.128,29.128,0,0,1-24.6,13.432v7.17a36.268,36.268,0,0,0,30.634-16.724l.64-.995a374.641,374.641,0,0,1,47.615-59.651l12.838,12.838-8.22,8.22a39.076,39.076,0,0,0,0,55.261l5.07-5.07a31.664,31.664,0,0,1-8.936-17.469,14.341,14.341,0,0,1,20.479,10.113,32.058,32.058,0,0,0-4.668,1.482l2.691,6.646a25.112,25.112,0,0,1,34.505,23.273h7.17a32.3,32.3,0,0,0-32.266-32.266c-.1,0-.2.006-.3.007a21.518,21.518,0,0,0-27.91-16.865,31.661,31.661,0,0,1,9.238-20.043l20.912-20.912c.551-.185,1.1-.376,1.648-.567v8.19a3.585,3.585,0,0,0,1.05,2.535l14.34,14.34a3.585,3.585,0,0,0,5.07,0,40.042,40.042,0,0,0,11.805-28.5V99.349a145.474,145.474,0,0,0,22.649-18.471A69.1,69.1,0,0,0,232.209,31.7V19.585A3.585,3.585,0,0,0,228.624,16Zm-3.585,7.17V31.7a62.712,62.712,0,0,1-2.173,16.413,23.468,23.468,0,0,1-14.025-6.77l-1.97-1.97a23.469,23.469,0,0,1-6.77-14.025,62.716,62.716,0,0,1,16.413-2.173Zm-98.9,60.946L115.521,73.5a32.887,32.887,0,0,1,20.761-7.3h8.13a146.192,146.192,0,0,0-8.839,17.925Zm3.585,21.51,5.685-5.685L148.267,112.8l-5.685,5.685Zm52.291,6.3a32.885,32.885,0,0,1-7.3,20.761l-10.62-10.62v-9.431a146.192,146.192,0,0,0,17.925-8.839Zm24.749-36.119A139.128,139.128,0,0,1,154.3,108.685L139.524,93.913A139.123,139.123,0,0,1,172.4,41.442a62.255,62.255,0,0,1,20.784-13.778A30.591,30.591,0,0,0,201.8,44.438l1.97,1.97a30.59,30.59,0,0,0,16.774,8.615,62.264,62.264,0,0,1-13.778,20.784Z"/></g></g></svg>