<svg xmlns="http://www.w3.org/2000/svg" width="66" height="66" viewBox="0 0 66 66"><defs><style>.a{fill:#e5ebfa;}.b{fill:#EE6611;}</style></defs><g transform="translate(-90 -1694)"><circle class="a" cx="33" cy="33" r="33" transform="translate(90 1694)"/><g transform="translate(107.848 1712)"><g transform="translate(0.152 22.292)"><g transform="translate(0)"><path class="b" d="M1.739,376.123A1.589,1.589,0,0,0,.152,377.71v4.879a1.589,1.589,0,0,0,1.587,1.587h6.15v-8.053Z" transform="translate(-0.152 -376.123)"/></g></g><g transform="translate(9.668 17.841)"><path class="b" d="M162.3,301.011a1.589,1.589,0,0,0-1.587,1.587v10.918h7.737V301.011Z" transform="translate(-160.713 -301.011)"/></g><g transform="translate(19.185 0)"><g transform="translate(0 0)"><path class="b" d="M332.023,3.931,327.962.389a1.593,1.593,0,0,0-2.087,0l-4.061,3.542a1.587,1.587,0,0,0-.544,1.2V30.346h9.708a1.589,1.589,0,0,0,1.587-1.587V5.127A1.587,1.587,0,0,0,332.023,3.931Zm-4.214,17.655a.89.89,0,0,1-1.779,0V9.785a.89.89,0,0,1,1.779,0Z" transform="translate(-321.271 0)"/></g></g></g></g></svg>