<svg xmlns="http://www.w3.org/2000/svg" width="186.223" height="249.21" viewBox="0 0 186.223 249.21"><defs><style>.a{fill:#bebdce;}</style></defs><g transform="translate(684.024 -478.993)"><g transform="translate(-684.114 479.201)"><ellipse class="a" cx="4" cy="5" rx="4" ry="5" transform="translate(0.228 -0.08)"/><circle class="a" cx="4.565" cy="4.565" r="4.565" transform="translate(0.09 39.806)"/><circle class="a" cx="4.565" cy="4.565" r="4.565" transform="translate(0.09 79.819)"/><circle class="a" cx="4.565" cy="4.565" r="4.565" transform="translate(0.09 119.833)"/><circle class="a" cx="4.565" cy="4.565" r="4.565" transform="translate(0.09 159.846)"/><circle class="a" cx="4.565" cy="4.565" r="4.565" transform="translate(0.09 199.859)"/><circle class="a" cx="4.565" cy="4.565" r="4.565" transform="translate(0.09 239.873)"/></g><g transform="translate(-648.605 478.993)"><circle class="a" cx="4.565" cy="4.565" r="4.565" transform="translate(0 0)"/><circle class="a" cx="4.565" cy="4.565" r="4.565" transform="translate(0 40.014)"/><circle class="a" cx="4.565" cy="4.565" r="4.565" transform="translate(0 80.027)"/><circle class="a" cx="4.565" cy="4.565" r="4.565" transform="translate(0 120.041)"/><circle class="a" cx="4.565" cy="4.565" r="4.565" transform="translate(0 160.054)"/><circle class="a" cx="4.565" cy="4.565" r="4.565" transform="translate(0 200.067)"/><circle class="a" cx="4.565" cy="4.565" r="4.565" transform="translate(0 240.081)"/></g><g transform="translate(-613.186 478.993)"><circle class="a" cx="4.565" cy="4.565" r="4.565" transform="translate(0 0)"/><circle class="a" cx="4.565" cy="4.565" r="4.565" transform="translate(0 40.014)"/><circle class="a" cx="4.565" cy="4.565" r="4.565" transform="translate(0 80.027)"/><circle class="a" cx="4.565" cy="4.565" r="4.565" transform="translate(0 120.041)"/><circle class="a" cx="4.565" cy="4.565" r="4.565" transform="translate(0 160.054)"/><circle class="a" cx="4.565" cy="4.565" r="4.565" transform="translate(0 200.067)"/><circle class="a" cx="4.565" cy="4.565" r="4.565" transform="translate(0 240.081)"/></g><g transform="translate(-577.768 478.993)"><circle class="a" cx="4.565" cy="4.565" r="4.565" transform="translate(0 0)"/><circle class="a" cx="4.565" cy="4.565" r="4.565" transform="translate(0 40.014)"/><circle class="a" cx="4.565" cy="4.565" r="4.565" transform="translate(0 80.027)"/><circle class="a" cx="4.565" cy="4.565" r="4.565" transform="translate(0 120.041)"/><circle class="a" cx="4.565" cy="4.565" r="4.565" transform="translate(0 160.054)"/><circle class="a" cx="4.565" cy="4.565" r="4.565" transform="translate(0 200.067)"/><circle class="a" cx="4.565" cy="4.565" r="4.565" transform="translate(0 240.081)"/></g><g transform="translate(-542.349 478.993)"><circle class="a" cx="4.565" cy="4.565" r="4.565" transform="translate(0 0)"/><circle class="a" cx="4.565" cy="4.565" r="4.565" transform="translate(0 40.014)"/><circle class="a" cx="4.565" cy="4.565" r="4.565" transform="translate(0 80.027)"/><circle class="a" cx="4.565" cy="4.565" r="4.565" transform="translate(0 120.041)"/><circle class="a" cx="4.565" cy="4.565" r="4.565" transform="translate(0 160.054)"/><circle class="a" cx="4.565" cy="4.565" r="4.565" transform="translate(0 200.067)"/><circle class="a" cx="4.565" cy="4.565" r="4.565" transform="translate(0 240.081)"/></g><g transform="translate(-506.93 478.993)"><circle class="a" cx="4.565" cy="4.565" r="4.565" transform="translate(0 0)"/><circle class="a" cx="4.565" cy="4.565" r="4.565" transform="translate(0 40.014)"/><circle class="a" cx="4.565" cy="4.565" r="4.565" transform="translate(0 80.027)"/><circle class="a" cx="4.565" cy="4.565" r="4.565" transform="translate(0 120.041)"/><circle class="a" cx="4.565" cy="4.565" r="4.565" transform="translate(0 160.054)"/><circle class="a" cx="4.565" cy="4.565" r="4.565" transform="translate(0 200.067)"/><circle class="a" cx="4.565" cy="4.565" r="4.565" transform="translate(0 240.081)"/></g></g></svg>