<svg xmlns="http://www.w3.org/2000/svg" width="122.16" height="48.774" viewBox="0 0 122.16 48.774"><defs><style>.a{fill:#002581;}</style></defs><g transform="translate(-266.321 -354.632)"><g transform="translate(266.321 354.632)"><path class="a" d="M290.617,424.122a14.755,14.755,0,0,1-19.99-4.908c-2-3.081-4.676-6.24-1.99-11.234,1.873,3.205,3.313,5.807,4.893,8.33,3.608,5.783,9.809,7.448,15.228,4.157,5.172-3.136,6.658-9.244,3.492-15.027-1.935-3.522-3.933-7.022-6.016-10.467l.039-.023-5.148-8.927c3.066-.588,5.288,1.254,7.022,4.274,2.686,4.676,5.59,9.244,8.067,14.021A14.815,14.815,0,0,1,290.617,424.122Z" transform="translate(-267.182 -377.367)"/><path class="a" d="M309.856,413.217c1.827,3.066,2.268,5.961.139,8.361l-5.21-9.019c-.875-1.564-1.788-3.112-2.694-4.661l-.2-.348-1.177-2.044H300.7c-.519-.906-1.037-1.811-1.533-2.733-1.8-3.283-1.842-6.116-.2-8.044l5.195,9,.116-.07C306.063,406.892,307.975,410.043,309.856,413.217Z" transform="translate(-289.184 -383.772)"/><path class="a" d="M295.586,372.579c-1.982-3.314-3.515-6.109-5.272-8.756a10.809,10.809,0,0,0-14.625-3.67,10.652,10.652,0,0,0-3.995,14.5c.7,1.347,1.432,2.679,2.168,4.01.255.465.519.921.782,1.386l.968,1.68,7.533,13.053c-2.578.364-5.241-1.27-7.146-4.506-2.655-4.5-5.334-8.989-7.8-13.587a14.806,14.806,0,0,1,25.556-14.95C295.633,364.744,298.373,367.756,295.586,372.579Z" transform="translate(-266.321 -354.632)"/></g><g transform="translate(304.559 372.551)"><path class="a" d="M413.223,429.222c0-.87-1.03-1.066-2.273-1.137-2.7-.2-4.476-1.119-4.512-3.819-.107-5.364,9.556-5.364,9.485,0H412.9c0-1.652-3.339-1.51-3.446-.036-.071.942.853,1.137,1.971,1.261,2.469.266,4.885.639,4.885,3.748,0,5.222-10.124,5.311-10.053-.16h3.073C409.333,430.66,413.223,430.678,413.223,429.222Z" transform="translate(-406.26 -420.234)"/><path class="a" d="M453.684,433.424H450.54V428.2l-4.174-6.732v-.479h3.428l2.256,4.138h.125l2.256-4.138h3.446v.479l-4.192,6.732Z" transform="translate(-435.407 -420.778)"/><path class="a" d="M498.076,427.173v6.11H494.79V420.8h1.155l6.288,6.145v-6.092h3.251V433.3h-1.137Z" transform="translate(-470.599 -420.636)"/><path class="a" d="M553.252,423.833h-4.6v1.758h4.227v2.824h-4.227V430.6h4.76v2.824H545.49V420.991h7.762Z" transform="translate(-507.445 -420.778)"/><path class="a" d="M581.694,426.658c0-8.6,12.753-8.6,12.753,0C594.447,435.273,581.694,435.273,581.694,426.658Zm9.5,0a3.126,3.126,0,1,0-6.235,0A3.126,3.126,0,1,0,591.2,426.658Z" transform="translate(-533.756 -420.211)"/><path class="a" d="M643.5,429.233v-8.242h3.037v8.295c0,2.736-2.363,4.316-4.92,4.316-2.54,0-4.938-1.581-4.938-4.316v-8.295h3.037v8.242c0,1.012.977,1.51,1.9,1.51S643.5,430.245,643.5,429.233Z" transform="translate(-573.721 -420.778)"/><path class="a" d="M679.582,423.833v-2.842h9.236v2.842h-3.037v9.592h-3.144v-9.592Z" transform="translate(-604.897 -420.778)"/></g></g></svg>