<svg xmlns="http://www.w3.org/2000/svg" width="66" height="66" viewBox="0 0 66 66"><defs><style>.a{fill:#e5ebfa;}.b{fill:#002581;}</style></defs><g transform="translate(-379 -1978)"><circle class="a" cx="33" cy="33" r="33" transform="translate(379 1978)"/><g transform="translate(392.308 1981.353)"><g transform="translate(0 16.713)"><path class="b" d="M39.336,71.159a.2.2,0,0,0-.151-.07H.2a.2.2,0,0,0-.2.23c.006.036.594,3.646,5.158,3.646H34.225c4.564,0,5.152-3.61,5.158-3.646A.2.2,0,0,0,39.336,71.159ZM22.624,73.7H16.76V72.352h5.864Z" transform="translate(0 -49.098)"/><path class="b" d="M9.316,37.3H40.2a.809.809,0,0,0,.809-.809V17.522a.809.809,0,0,0-.809-.809H9.316a.809.809,0,0,0-.809.809v18.97A.809.809,0,0,0,9.316,37.3Zm2.022-17.757H38.18V34.47H11.338V19.544Z" transform="translate(-5.066 -16.713)"/></g></g></g></svg>